<svg width="48" height="48" viewBox="0 0 48 48" fill="none" xmlns="http://www.w3.org/2000/svg">
<path d="M28.7313 15.6019C28.8171 15.5113 28.8842 15.4047 28.9288 15.2882C28.9733 15.1716 28.9944 15.0475 28.9909 14.9228C28.9873 14.7982 28.9592 14.6754 28.9082 14.5616C28.8571 14.4478 28.784 14.3451 28.6932 14.2594C28.6024 14.1738 28.4955 14.1068 28.3787 14.0624C28.262 14.0179 28.1376 13.9969 28.0126 14.0004C27.8877 14.0039 27.7647 14.032 27.6506 14.0829C27.5365 14.1339 27.4336 14.2068 27.3478 14.2974L19.2601 22.8424C19.0931 23.0187 19 23.2521 19 23.4947C19 23.7373 19.0931 23.9706 19.2601 24.1469L27.3478 32.6929C27.4331 32.7855 27.5359 32.8603 27.6504 32.9129C27.7649 32.9655 27.8887 32.9949 28.0147 32.9994C28.1407 33.0039 28.2663 32.9833 28.3842 32.9389C28.5022 32.8945 28.6101 32.8272 28.7018 32.7409C28.7934 32.6545 28.867 32.5508 28.9181 32.4359C28.9693 32.3209 28.997 32.197 28.9998 32.0712C29.0025 31.9455 28.9802 31.8204 28.9341 31.7034C28.888 31.5863 28.8191 31.4795 28.7313 31.3893L21.2601 23.4947L28.7313 15.6019Z" fill="black"/>
</svg>
