<svg width="140" height="214" viewBox="0 0 140 214" fill="none" xmlns="http://www.w3.org/2000/svg">
<path d="M79.3764 2.49912C81.3452 4.03501 82.9069 6.34113 83.3389 8.83923C83.5861 12.2106 83.2029 15.1445 80.9562 17.7983C79.6737 19.1492 78.2648 20.3112 76.7842 21.4369C75.3777 22.5199 74.5376 23.471 74.093 25.2178C74.0623 25.4685 74.0317 25.7191 74.0001 25.9773C73.6874 28.4786 73.6874 28.4786 72.9042 29.2464C71.5592 29.9189 70.2368 29.9941 68.7951 29.5364C68.0217 29.0006 67.667 28.4221 67.2245 27.5954C66.7621 24.5356 67.4011 22.1052 69.2058 19.6537C70.2618 18.3944 71.4841 17.4789 72.8134 16.5239C74.4081 15.352 75.6442 14.2242 76.2063 12.2735C76.3761 10.9405 76.3565 9.94949 75.7771 8.72365C74.5936 7.44677 73.2581 7.08507 71.572 6.92708C69.3926 6.86592 67.7315 7.32652 65.9367 8.57506C65.3593 9.39025 65.1485 10.0195 64.8635 10.9691C64.542 12.0064 64.3802 12.4746 63.6087 13.2641C62.475 13.6919 61.5486 13.8754 60.3561 13.5943C59.4655 13.0503 58.7132 12.422 58.2427 11.4809C57.8907 8.74513 58.687 6.82832 60.2023 4.58669C64.4441 -0.819555 73.9932 -1.35606 79.3764 2.49912Z" fill="#4F414A"/>
<path d="M71.9792 33.4072C72.9159 33.9239 73.6126 34.5605 74.0926 35.5205C74.3667 38.7745 74.3667 38.7745 73.6303 39.9124C72.5936 41.0067 71.8442 41.5344 70.3116 41.679C69.1194 41.578 68.645 41.3331 67.7525 40.5398C66.8776 39.3399 66.5072 38.1248 66.574 36.6422C67.1684 33.7459 69.2712 32.9948 71.9792 33.4072Z" fill="#50424A"/>
<path d="M110.554 46.0968C112.027 46.5947 113.036 47.6255 113.724 49.0027C113.743 49.4536 113.747 49.9053 113.741 50.3565C113.737 50.7172 113.737 50.7172 113.734 51.0851C113.729 51.3619 113.729 51.3619 113.724 51.6444C114.077 51.746 114.077 51.746 114.437 51.8497C118.822 53.4737 121.899 58.4002 123.817 62.4269C126.311 67.9767 126.057 73.9021 124.442 79.6337C124.393 79.8123 124.343 79.9909 124.291 80.1749C124.237 80.3578 124.183 80.5407 124.127 80.7292C123.975 81.4927 124.256 82.0272 124.522 82.7505C125.197 84.7943 125.293 86.7599 125.348 88.8925C125.75 88.9374 125.75 88.9374 126.16 88.9833C129.703 89.5755 132.409 91.5302 134.528 94.374C137.157 98.3636 138.078 102.136 137.219 106.856C136.542 109.7 135.163 112.288 133.273 114.517C133.417 114.63 133.561 114.743 133.71 114.859C137.027 117.609 139.133 121.361 139.877 125.612C140.369 131.451 139.465 137.099 135.639 141.736C134.336 143.044 132.737 143.96 131.16 144.897C131.214 145.053 131.268 145.209 131.324 145.37C131.395 145.579 131.466 145.788 131.539 146.003C131.61 146.208 131.68 146.414 131.753 146.625C133.095 150.998 132.268 156.009 130.301 160.054C128.148 164.072 124.708 167.37 120.322 168.853C118.475 169.409 116.727 169.792 114.781 169.729C114.688 170.061 114.596 170.394 114.5 170.736C113.032 175.122 109.558 178.172 105.552 180.23C104.116 180.833 102.621 181.202 101.11 181.567C100.761 181.654 100.761 181.654 100.406 181.743C98.3144 182.212 96.3086 182.202 94.1758 182.145C94.357 192.054 94.357 192.054 94.7041 201.958C95.1352 202.049 95.1352 202.049 95.575 202.142C99.2623 202.949 102.937 203.782 105.182 207.098C105.959 208.51 106.281 209.601 106.063 211.204C105.711 212.084 105.416 212.43 104.623 212.946C103.361 213.446 102.22 213.465 100.873 213.493C100.596 213.502 100.32 213.511 100.034 213.519C99.1383 213.545 98.2422 213.564 97.3458 213.581C96.8995 213.59 96.8995 213.59 96.4443 213.6C94.6204 213.635 92.7969 213.653 90.9727 213.659C90.3477 213.662 89.7228 213.668 89.0979 213.675C88.1784 213.687 87.259 213.691 86.3394 213.694C86.0612 213.698 85.783 213.703 85.4964 213.708C83.8953 213.703 82.9791 213.591 81.7597 212.525C80.2727 210.917 80.3686 209.382 80.2913 207.284C80.2801 206.986 80.269 206.688 80.2575 206.38C80.118 202.17 80.1452 197.957 80.1565 193.745C80.1593 192.611 80.1605 191.477 80.1618 190.343C80.1646 188.139 80.1691 185.934 80.1747 183.73C79.9474 183.81 79.9474 183.81 79.7156 183.892C76.5077 185 73.2792 185.15 69.905 185.133C69.7206 185.133 69.5361 185.133 69.3461 185.133C63.0358 185.115 63.0358 185.115 60.3619 183.73C60.3624 183.897 60.363 184.065 60.3636 184.237C60.3801 189.175 60.3783 194.113 60.3619 199.052C60.3611 199.354 60.3604 199.655 60.3596 199.966C60.3552 201.551 60.3444 203.135 60.3213 204.72C60.3154 205.186 60.3116 205.653 60.3103 206.119C60.2939 210.495 60.2939 210.495 58.7768 212.26C57.5645 213.366 56.2967 213.387 54.7214 213.46C54.4915 213.471 54.2616 213.482 54.0248 213.494C50.9843 213.625 47.9423 213.65 44.8993 213.659C44.2159 213.662 43.5325 213.668 42.8492 213.675C41.8492 213.687 40.8494 213.691 39.8494 213.694C39.5448 213.698 39.2402 213.703 38.9263 213.708C37.2692 213.703 36.2569 213.646 35.0014 212.525C34.2522 211.74 34.0837 211.176 34.0603 210.097C34.123 208.413 34.6213 207.385 35.7939 206.184C38.6863 203.724 41.8702 202.651 45.5683 201.958C46.0838 195.357 46.2487 188.763 46.3608 182.145C46.1867 182.15 46.0126 182.156 45.8333 182.162C40.0819 182.32 35.6771 181.558 31.1132 177.713C29.2782 175.925 27.9251 173.73 27.0763 171.314C27.0763 171.052 27.0763 170.791 27.0763 170.521C26.7828 170.531 26.4892 170.54 26.1868 170.549C23.9817 170.598 22.005 170.614 19.9437 169.729C19.7343 169.642 19.5248 169.555 19.3091 169.466C15.1662 167.574 11.7092 164.297 10.0517 160.028C9.15327 157.476 8.80089 155.15 8.79897 152.459C8.79412 152.104 8.79412 152.104 8.78917 151.743C8.78546 150.045 8.86854 148.291 9.64101 146.746C9.38493 146.697 9.12885 146.648 8.86501 146.597C7.4788 146.2 6.4872 145.298 5.41428 144.368C5.25321 144.236 5.09213 144.103 4.92618 143.966C2.36663 141.669 1.13417 138.392 0.395028 135.122C0.344629 134.912 0.29423 134.701 0.242304 134.484C-0.497199 129.958 0.462077 125.177 3.03674 121.386C4.09597 120.065 5.27277 118.88 6.47096 117.687C6.07312 116.588 5.52525 115.647 4.91896 114.649C2.7926 110.987 2.16297 107.224 3.06976 103.075C4.35177 98.702 7.32495 94.6518 11.323 92.4021C14.1833 91.0059 14.1833 91.0059 15.4528 91.0059C15.4105 90.8524 15.3682 90.699 15.3246 90.5409C14.447 86.7233 15.4443 82.5837 17.3835 79.274C20.0251 75.2293 23.7688 72.1377 28.4756 70.8277C31.14 70.3837 34.0113 70.3254 36.5865 71.193C36.6401 70.9336 36.6401 70.9336 36.6948 70.6688C37.4635 67.41 39.1765 64.2753 42.0697 62.4462C46.4146 59.9195 51.1909 59.0603 56.1021 60.263C59.1007 61.1782 61.4202 62.5701 63.7961 64.5888C64.1463 64.8556 64.4978 65.1207 64.8528 65.3813C64.9219 65.2267 64.991 65.0721 65.0622 64.9128C65.7251 63.69 66.7629 62.7041 68.0063 62.0956C68.1861 62.0466 68.3659 61.9976 68.5512 61.947C68.5675 61.6256 68.5838 61.3041 68.6007 60.9729C68.753 59.7752 69.1711 59.2634 70.1362 58.5128C71.5498 57.6158 72.7279 57.6157 74.3464 57.6543C74.5896 57.6572 74.8328 57.6601 75.0834 57.663C77.1383 57.6959 79.184 57.8084 81.2314 57.9845C81.334 57.6315 81.334 57.6315 81.4388 57.2714C82.7913 53.5966 86.5814 51.303 89.9614 49.7229C92.587 48.5477 94.9775 47.8933 97.8422 47.9666C98.3026 47.9738 98.763 47.9807 99.2234 47.9873C99.9458 47.9987 100.668 48.0121 101.39 48.0311C102.09 48.0487 102.789 48.0579 103.489 48.0657C103.705 48.0733 103.92 48.081 104.143 48.0889C104.829 48.1067 104.829 48.1067 105.799 47.946C106.438 47.3399 106.438 47.3399 106.856 46.6251C108.04 45.8361 109.167 45.9396 110.554 46.0968Z" fill="#95BAD4"/>
<path d="M88.5106 180.112C88.7371 180.196 88.9637 180.281 89.1971 180.368C90.198 180.713 91.1991 180.907 92.2407 181.099C92.4266 181.134 92.6126 181.169 92.8042 181.205C93.2464 181.288 93.6889 181.369 94.1315 181.45C94.414 183.713 94.489 185.977 94.5537 188.254C94.5656 188.646 94.5775 189.038 94.5895 189.431C94.6207 190.454 94.6506 191.478 94.6804 192.502C94.711 193.55 94.7428 194.598 94.7745 195.646C94.8362 197.696 94.8968 199.746 94.9566 201.796C95.2733 201.867 95.5901 201.937 95.9165 202.009C96.3385 202.104 96.7606 202.199 97.1826 202.294C97.3906 202.34 97.5986 202.386 97.8129 202.434C101.045 203.164 103.936 204.233 105.865 207.005C106.674 208.436 107.009 209.542 106.783 211.166C106.416 212.058 106.109 212.409 105.283 212.932C103.969 213.438 102.782 213.457 101.379 213.487C101.091 213.495 100.803 213.504 100.506 213.513C99.573 213.539 98.6401 213.558 97.7069 213.576C97.3971 213.582 97.0874 213.588 96.7683 213.594C94.8694 213.63 92.971 213.648 91.0718 213.655C90.4212 213.658 89.7706 213.663 89.12 213.671C88.1626 213.682 87.2055 213.687 86.2481 213.69C85.9584 213.694 85.6688 213.699 85.3704 213.704C83.7035 213.699 82.7497 213.585 81.4802 212.505C79.932 210.876 80.0319 209.32 79.9514 207.194C79.9398 206.892 79.9282 206.59 79.9162 206.278C79.771 202.011 79.7993 197.742 79.8111 193.473C79.814 192.324 79.8152 191.175 79.8166 190.026C79.8195 187.792 79.8241 185.558 79.83 183.324C79.9768 183.266 80.1236 183.208 80.2748 183.149C80.9525 182.88 81.6289 182.609 82.3053 182.337C82.5361 182.246 82.7669 182.155 83.0046 182.061C84.3627 181.513 85.5583 180.914 86.7486 180.07C87.4341 179.764 87.8039 179.895 88.5106 180.112Z" fill="#719CBA"/>
<path d="M53.8933 179.987C54.1285 180.115 54.3638 180.243 54.6061 180.375C54.9897 180.546 55.3746 180.715 55.7603 180.881C56.4083 181.169 57.056 181.457 57.7037 181.746C58.0187 181.886 58.0187 181.886 58.3401 182.028C58.6237 182.155 58.6237 182.155 58.913 182.283C59.5543 182.56 60.2025 182.817 60.8521 183.074C60.8705 188.293 60.8696 193.511 60.8521 198.729C60.8514 199.038 60.8506 199.346 60.8498 199.664C60.8453 201.283 60.8342 202.901 60.8104 204.52C60.8043 204.997 60.8005 205.474 60.7991 205.951C60.7822 210.422 60.7822 210.422 59.2227 212.225C57.9764 213.354 56.6731 213.376 55.0538 213.451C54.8175 213.462 54.5812 213.474 54.3377 213.485C51.2121 213.619 48.0849 213.644 44.9568 213.654C44.2543 213.657 43.5518 213.663 42.8493 213.671C41.8213 213.682 40.7936 213.687 39.7655 213.689C39.4524 213.694 39.1393 213.699 38.8166 213.704C37.1131 213.699 36.0725 213.641 34.7819 212.495C34.0117 211.694 33.8384 211.117 33.8145 210.015C33.8789 208.294 34.3911 207.243 35.5966 206.017C38.5699 203.503 41.8429 202.406 45.6445 201.698C45.9901 196.942 46.2564 192.195 46.3663 187.428C46.4155 185.426 46.5129 183.446 46.7308 181.455C47.1976 181.381 47.1976 181.381 47.6738 181.306C48.0893 181.238 48.5048 181.169 48.9202 181.1C49.2266 181.053 49.2266 181.053 49.5392 181.004C50.5597 180.833 51.433 180.633 52.3647 180.178C53.2483 179.835 53.2483 179.835 53.8933 179.987Z" fill="#709AB9"/>
<path d="M110.865 46.0968C112.337 46.5947 113.347 47.6255 114.035 49.0027C114.054 49.4536 114.057 49.9053 114.052 50.3565C114.049 50.597 114.047 50.8374 114.044 51.0851C114.04 51.3619 114.04 51.3619 114.035 51.6444C114.388 51.746 114.388 51.746 114.748 51.8497C119.132 53.4737 122.21 58.4002 124.127 62.4269C126.27 67.1944 126.514 72.6407 125.328 77.6817C125.274 77.9157 125.22 78.1497 125.165 78.3907C124.594 80.608 124.594 80.608 123.545 81.2315C121.996 81.2426 120.977 80.6369 119.731 79.8116C119.551 79.6958 119.37 79.5801 119.184 79.4608C118.215 78.8345 117.264 78.186 116.32 77.5228C116.133 77.3922 115.947 77.2616 115.755 77.127C115.399 76.8759 115.045 76.6223 114.694 76.3657C112.619 74.8906 110.364 74.7221 107.893 74.3961C104.884 73.9808 101.935 73.4663 98.9774 72.7781C98.6203 72.6976 98.6203 72.6976 98.256 72.6154C91.7365 71.1445 85.3605 69.2691 79.049 67.0819C78.8472 67.0128 78.6454 66.9438 78.4374 66.8726C71.3341 64.432 71.3341 64.432 69.1261 62.4754C68.906 61.5797 68.9598 60.7376 69.1261 59.8337C69.9091 58.7512 70.8042 58.215 72.032 57.7203C72.9095 57.6189 73.775 57.6332 74.6572 57.6543C74.9004 57.6572 75.1436 57.6601 75.3941 57.663C77.449 57.6959 79.4947 57.8084 81.5421 57.9845C81.6106 57.7492 81.679 57.5139 81.7495 57.2714C83.102 53.5966 86.8921 51.303 90.2721 49.7229C92.8977 48.5477 95.2882 47.8933 98.1529 47.9666C98.6133 47.9738 99.0737 47.9807 99.5341 47.9873C100.257 47.9987 100.979 48.0121 101.701 48.0311C102.401 48.0487 103.1 48.0579 103.8 48.0657C104.015 48.0733 104.231 48.081 104.453 48.0889C105.14 48.1067 105.14 48.1067 106.11 47.946C106.749 47.3399 106.749 47.3399 107.167 46.6251C108.35 45.8361 109.477 45.9396 110.865 46.0968Z" fill="#5787A9"/>
<path d="M110.043 53.6996C112.647 55.9572 113.491 59.427 113.826 62.7216C113.893 64.4892 113.629 66.1446 113.263 67.8657C113.219 68.0725 113.175 68.2793 113.13 68.4924C112.89 69.5264 112.686 70.1673 111.892 70.8707C111.664 70.7519 111.435 70.633 111.2 70.5106C102.86 66.2277 94.0088 62.9784 85.2109 59.7755C86.929 56.2217 90.4811 53.9682 94.0442 52.5769C98.767 50.9781 105.759 50.6936 110.043 53.6996Z" fill="#95BAD5"/>
<path d="M115.454 57.1338C118.144 59.7455 119.87 62.511 121.001 66.1156C121.061 66.2951 121.121 66.4745 121.183 66.6594C122.014 69.62 121.728 73.2092 121.001 76.1541C119.002 75.0984 117.082 73.957 115.189 72.7199C115.263 72.4202 115.336 72.1205 115.411 71.8118C115.508 71.41 115.605 71.0083 115.701 70.6065C115.749 70.41 115.798 70.2135 115.847 70.0111C116.882 65.6835 116.775 61.3805 115.454 57.1338Z" fill="#96BBD6"/>
<path d="M86.4271 149.716C87.5486 150.672 88.3947 151.601 89.1514 152.866C89.7089 153.794 89.7089 153.794 90.7529 154.104C93.4806 153.559 95.625 152.85 97.2911 150.472C97.5007 150.093 97.7099 149.713 97.9185 149.333C98.4389 148.479 98.5552 148.38 99.5531 148.012C100.461 148.094 100.461 148.094 101.105 148.623C101.687 149.741 101.724 150.554 101.371 151.769C100.327 154.27 98.007 155.821 95.5854 156.819C95.2528 156.947 95.2528 156.947 94.9136 157.076C94.7055 157.169 94.4975 157.262 94.2831 157.358C92.1808 158.109 89.8113 157.946 87.6056 157.982C85.8524 158.033 84.3819 158.246 82.7617 158.925C82.5312 159.022 82.3007 159.118 82.0631 159.218C79.9229 160.286 77.9839 161.631 76.0316 163.006C75.8789 163.113 75.7263 163.22 75.5691 163.33C75.1398 163.632 74.7121 163.936 74.2845 164.24C73.5962 164.685 72.9659 164.996 72.1949 165.266C72.1949 165.44 72.1949 165.614 72.1949 165.794C72.3648 165.858 72.5347 165.921 72.7098 165.987C73.3534 166.255 73.9699 166.539 74.5941 166.848C77.2611 168.163 79.874 169.295 82.7617 170.021C83.089 170.105 83.4162 170.189 83.7534 170.276C91.0543 171.936 99.2714 171.18 105.745 167.379C108.84 165.398 111.533 162.697 113.811 159.821C114.285 159.371 114.606 159.247 115.255 159.19C115.429 159.364 115.603 159.538 115.783 159.718C115.719 163.351 112.793 166.285 110.321 168.677C103.959 174.387 95.4685 175.468 87.2526 175.04C85.6371 174.906 84.0716 174.63 82.4976 174.247C82.2219 174.182 82.2219 174.182 81.9407 174.114C77.6215 173.045 73.0514 171.232 69.4541 168.584C68.8145 168.116 68.8145 168.116 68.1993 168.201C67.1033 168.539 66.1601 169.1 65.1613 169.657C57.267 173.925 47.3654 175.986 38.5853 173.371C32.731 171.403 27.8469 168.132 24.7308 162.735C24.3038 161.635 24.3135 160.888 24.3799 159.718C24.933 159.477 24.933 159.477 25.7008 159.454C26.3688 159.949 26.8812 160.573 27.4179 161.204C27.7121 161.538 28.0066 161.871 28.3012 162.205C28.4423 162.367 28.5835 162.529 28.7289 162.696C29.2794 163.315 29.8623 163.896 30.4559 164.473C30.6081 164.625 30.7603 164.776 30.9171 164.932C36.1179 169.773 42.897 170.471 49.6822 170.32C58.5025 169.959 66.5668 164.469 73.5756 159.613C77.3269 157.02 80.8421 154.95 85.4034 154.17C82.2356 151.143 78.3139 150.352 74.0581 150.397C67.388 150.553 61.2948 152.457 55.0103 154.555C54.7856 154.629 54.5609 154.704 54.3294 154.781C53.9073 154.921 53.4855 155.063 53.0641 155.206C49.6891 156.33 45.9741 157.045 42.6077 155.491C40.8766 154.495 39.5399 153.054 38.6452 151.265C38.5766 150.339 38.5546 149.636 38.9093 148.771C39.5688 148.256 40.1355 148.1 40.9732 148.133C42.0553 148.556 42.5498 149.574 43.1474 150.526C43.7721 151.418 44.4565 152.11 45.4806 152.519C48.8108 152.911 51.9901 151.499 55.0568 150.373C59.5512 148.726 64.0513 147.452 68.7639 146.604C69.1922 146.527 69.619 146.442 70.0454 146.355C75.6984 145.608 81.7526 146.241 86.4271 149.716Z" fill="#5787A8"/>
<path d="M56.9358 92.1567C61.3192 95.6826 64.2699 100.507 65.6382 105.949C65.7532 106.612 65.7532 106.612 66.085 106.899C66.6317 106.83 67.1763 106.744 67.7196 106.652C70.0648 106.297 72.4715 106.093 74.8027 106.635C74.8136 106.33 74.8245 106.025 74.8357 105.711C75.4384 100.403 79.0626 95.6442 82.9569 92.2327C87.7745 88.4182 92.8632 86.7032 98.9908 86.7067C99.2724 86.7066 99.2724 86.7066 99.5597 86.7064C102.495 86.716 105.118 86.9379 107.824 88.1432C108.001 88.2182 108.177 88.2933 108.359 88.3706C115.016 91.2482 119.531 96.4259 122.351 103.021C124.563 109.018 124.144 115.931 121.578 121.721C118.706 127.886 113.835 132.475 107.476 134.928C101.163 137.198 93.9407 136.777 87.8998 133.95C82.077 130.957 77.4397 125.8 75.331 119.58C74.6023 117.112 74.245 114.766 74.0101 112.183C71.3949 112.183 68.7796 112.183 66.085 112.183C66.085 112.88 66.085 113.578 66.085 114.296C66.009 114.918 66.009 114.918 65.9003 115.422C65.8595 115.612 65.8187 115.802 65.7766 115.998C65.7086 116.292 65.7086 116.292 65.6392 116.591C65.5919 116.798 65.5445 117.005 65.4957 117.219C64.0113 123.446 60.3008 129.205 54.8247 132.656C48.7083 136.143 41.226 137.512 34.3082 135.688C32.279 135.073 30.4094 134.097 28.5727 133.052C28.3092 132.905 28.0456 132.758 27.774 132.606C22.1603 129.261 18.7724 123.845 16.9348 117.675C15.347 111.311 16.5246 104.55 19.69 98.8916C23.2458 93.0795 28.82 88.7824 35.4677 87.1078C43.0711 85.5413 50.8714 87.3958 56.9358 92.1567Z" fill="#54474F"/>
<path d="M52.7585 95.7454C56.8513 98.8678 59.7602 103.08 60.536 108.22C60.801 112.086 60.8011 115.736 59.2152 119.315C59.0841 119.615 58.953 119.914 58.8179 120.223C57.7156 122.478 56.2233 124.172 54.4601 125.92C54.2926 126.096 54.125 126.273 53.9524 126.454C50.6534 129.68 45.6218 131.004 41.1195 131.071C35.5111 130.988 30.6429 128.86 26.7221 124.863C23.4036 121.14 21.4156 116.134 21.6368 111.101C21.6586 110.848 21.6804 110.595 21.7029 110.334C21.7247 110.048 21.7465 109.762 21.7689 109.467C22.2954 104.597 24.412 100.872 27.7788 97.3893C27.9382 97.2231 28.0976 97.0569 28.2618 96.8857C34.8632 90.5713 45.5275 90.7224 52.7585 95.7454Z" fill="#FDFBF2"/>
<path d="M110.994 96.0683C114.692 99.326 117.692 103.671 118.202 108.699C118.232 109.449 118.237 110.194 118.226 110.944C118.223 111.21 118.221 111.475 118.218 111.748C118.109 117.119 116.175 121.722 112.48 125.622C108.667 129.237 103.531 131.056 98.324 130.977C93.0456 130.726 88.2738 128.712 84.5768 124.863C80.5743 120.228 79.2362 115.004 79.5575 109.013C80.0601 103.937 82.668 99.6711 86.493 96.3758C93.5948 90.7793 103.729 90.5492 110.994 96.0683Z" fill="#FDFAF2"/>
<path d="M48.8114 102.731C51.1243 104.457 52.6882 106.958 53.3085 109.784C53.7767 113.8 53.2541 117.337 50.7617 120.636C48.7517 122.87 46.2097 124.199 43.206 124.398C39.9358 124.488 37.2071 123.868 34.6472 121.693C32.1107 119.166 30.9269 115.941 30.8828 112.397C30.8887 108.947 32.1883 105.924 34.6472 103.465C38.927 100.194 44.2324 99.7961 48.8114 102.731Z" fill="#53464E"/>
<path d="M103.854 103.019C106.095 104.884 107.409 107.247 108.088 110.069C108.387 113.806 107.889 116.988 105.71 120.108C105.424 120.525 105.424 120.525 105.133 120.95C103.001 123.081 100.631 124.121 97.6332 124.171C97.2753 124.17 97.2753 124.17 96.9102 124.17C96.5404 124.169 96.5404 124.169 96.1631 124.168C94.4056 124.137 92.9729 123.937 91.4452 123.014C91.1728 122.867 90.9003 122.72 90.6197 122.568C88.1037 120.544 86.4768 118.017 85.8976 114.824C85.5417 111.212 85.9305 108.098 88.0739 105.085C92.0716 100.245 98.6903 99.2842 103.854 103.019Z" fill="#54484F"/>
<path d="M69.9475 134.819C70.3883 134.812 70.3883 134.812 70.838 134.806C74.1003 134.804 76.8003 135.356 79.2926 137.543C80.1207 138.45 80.4189 139.131 80.5143 140.333C80.4654 141.332 80.356 141.498 79.6723 142.315C78.5597 142.942 78.1715 143.094 76.915 142.826C76.1475 142.324 75.4276 141.776 74.6995 141.219C72.8816 139.887 70.6315 139.982 68.4615 140.185C66.9816 140.617 65.9024 141.559 64.7631 142.562C64.0094 142.939 63.486 142.908 62.6498 142.826C61.9365 142.351 61.4499 142.012 61.0648 141.241C60.892 140.03 60.8914 138.945 61.5601 137.89C63.7114 135.254 66.7657 134.81 69.9475 134.819Z" fill="#54464F"/>
</svg>
