<svg width="200" height="207" viewBox="0 0 200 207" fill="none" xmlns="http://www.w3.org/2000/svg">
<path d="M68.5118 1.66757C67.0182 2.00403 65.9235 2.91014 65.1073 4.18854C65.0429 4.62843 64.9927 5.07051 64.952 5.51324C64.9296 5.74902 64.9072 5.9848 64.8841 6.22773C64.8602 6.49943 64.8602 6.49943 64.8357 6.77663C64.4795 6.83993 64.4795 6.83993 64.116 6.9045C59.6539 8.04473 56.1323 12.5548 53.8398 16.3027C51.2505 20.7531 50.4511 26.0638 51.0946 31.1244C51.1235 31.3591 51.1523 31.5939 51.1821 31.8358C51.5137 34.0668 51.5137 34.0668 52.4766 34.7855C53.9929 34.9555 55.0543 34.467 56.3591 33.7865C56.548 33.6916 56.7369 33.5968 56.9315 33.499C57.945 32.985 58.9438 32.4476 59.9367 31.8949C60.1328 31.7861 60.329 31.6773 60.531 31.5652C60.9053 31.3558 61.278 31.1437 61.6489 30.9284C63.8331 29.6966 66.0595 29.7634 68.5138 29.6981C71.5049 29.6005 74.4466 29.3997 77.415 29.0295C77.7731 28.9874 77.7731 28.9874 78.1385 28.9443C84.6769 28.1736 91.1163 26.9918 97.5245 25.4979C97.7294 25.451 97.9342 25.4041 98.1452 25.3558C105.355 23.695 105.355 23.695 107.72 22.0051C108.027 21.1503 108.061 20.3197 107.991 19.4171C107.335 18.276 106.514 17.6587 105.362 17.0478C104.512 16.8582 103.663 16.7833 102.797 16.7132C102.558 16.691 102.319 16.6689 102.074 16.646C100.057 16.4669 98.0414 16.3668 96.0174 16.3288C95.9745 16.0913 95.9317 15.8537 95.8875 15.6089C94.9403 11.8696 91.4629 9.23294 88.314 7.3374C85.8625 5.91603 83.5878 5.02918 80.7737 4.80646C80.3219 4.76618 79.8702 4.72557 79.4184 4.68467C78.7095 4.6216 78.0005 4.56049 77.2909 4.50484C76.6038 4.45015 75.9178 4.38726 75.2315 4.32295C75.0193 4.30826 74.8072 4.29357 74.5886 4.27843C73.914 4.22527 73.914 4.22527 72.9803 3.96813C72.4168 3.3087 72.4168 3.3087 72.0808 2.56544C71.0024 1.67068 69.8874 1.65623 68.5118 1.66757Z" fill="#5787A9"/>
<path d="M68.5348 9.20056C65.7515 11.1446 64.5677 14.4572 63.901 17.6505C63.6537 19.3753 63.742 21.0243 63.9241 22.7482C63.9455 22.9552 63.967 23.1623 63.9891 23.3757C64.1187 24.4134 64.2521 25.0623 64.9577 25.833C65.1938 25.7401 65.4299 25.6471 65.6731 25.5514C74.2839 22.2129 83.2896 19.9396 92.2382 17.7063C90.9203 14.048 87.6721 11.475 84.3244 9.74554C79.8617 7.69369 73.0406 6.69606 68.5348 9.20056Z" fill="#95BAD5"/>
<path d="M62.8818 12.0087C59.9771 14.2908 58.0019 16.8226 56.5234 20.2379C56.4462 20.4075 56.369 20.5772 56.2895 20.752C55.171 23.567 55.0823 27.1128 55.4912 30.0726C57.5585 29.2439 59.5571 28.3231 61.5381 27.3056C61.4972 27.0045 61.4563 26.7034 61.4141 26.3932C61.3607 25.9896 61.3073 25.5861 61.254 25.1825C61.227 24.9851 61.2 24.7876 61.1721 24.5842C60.6032 20.238 61.1508 16.0334 62.8818 12.0087Z" fill="#96BBD6"/>
<path d="M108.417 51.7123C108.16 50.2415 108.16 50.2415 105.681 48.2798C99.5359 43.9141 92.6419 45.8275 87.972 51.1758L87.5139 51.7123C85.8326 50.4331 84.1178 49.4067 82.1058 48.7315C78.3628 47.6988 75.1677 48.0841 71.7498 49.8757C68.7629 51.6758 66.9819 54.0189 65.9769 57.3198L65.7966 57.9561C64.9822 57.6846 64.9822 57.6846 64.3837 57.6495L63.6938 57.6485L62.9372 57.6475L62.1488 57.6507L61.3635 57.6475L60.6059 57.6485C57.5699 57.6526 54.3357 59.3653 52.2021 61.4629L51.6804 62.0281C50.7333 63.0386 49.9951 64.0527 49.3612 65.2867C48.2634 67.8422 47.9596 70.2976 48.83 72.9715L49.2372 73.9726C48.036 74.0366 46.8367 74.1021 45.6646 74.3861C42.3936 75.528 39.8841 77.5722 38.2036 80.5864L37.8356 81.3022C36.4239 84.0076 36.1909 87.6065 37.0276 90.5532L37.2927 91.3464H36.2068C35.1061 91.9507 34.2112 92.6376 33.6279 93.7557L33.4921 94.3325H32.9492C32.9492 92.8945 32.2758 91.7181 31.4392 90.5829C30.5739 89.6277 29.7502 89.3993 28.4933 89.2351L27.7913 89.1747C26.6991 89.0306 25.8059 88.9409 24.802 89.4536C23.6025 90.3614 23.1394 91.3378 22.7448 92.7695L22.6335 93.2467C20.9858 90.8058 19.1925 88.5892 16.8373 86.7856C15.4186 85.8958 13.9776 85.5731 12.3178 85.9171C11.5257 86.4259 10.8653 86.997 10.3507 87.7961C9.8287 89.235 9.96651 91.0605 10.2871 92.5404L10.4175 92.9752C9.13817 91.9091 7.70365 91.0143 6.00619 90.9731C4.61962 91.1118 4.20719 91.2707 3.29153 92.3135C2.53237 93.8047 2.64253 95.0702 3.08793 96.657L3.35939 97.3187C2.4429 97.3187 1.994 97.4289 1.18766 97.8616C0.438776 98.7319 0.12507 99.2771 0 100.424C0.735596 107.412 6.57141 115.098 11.444 119.826L12.0463 120.393C13.8279 122.072 15.6359 123.702 17.5456 125.236L18.29 125.823C21.7715 128.571 25.4788 131.096 29.3368 133.286L29.98 133.644C30.8819 134.147 31.739 134.672 32.7386 134.947L33.2207 135.052C33.2155 135.513 33.2106 135.973 33.2074 136.434L33.2037 137.004C33.1693 139.77 33.7746 142.48 35.1888 144.893C36.7722 147.213 39.026 149.278 41.8058 149.949L42.4505 149.983L42.441 150.479L42.4336 151.137C42.4144 152.44 42.6597 153.442 43.1801 154.632C45.1054 158.826 47.7913 161.723 52.1554 163.387C54.5745 164.142 57.3097 164.243 59.6208 163.132L60.3673 162.742C60.469 164.675 61.5675 166.42 62.9462 167.73L63.6249 168.171C66.4481 170.322 69.168 170.466 72.5864 170.381C72.9546 170.368 92.2636 171.761 92.6209 171.748C95.1754 171.543 97.403 170.295 99.17 168.477L99.7299 167.9C100.277 167.852 100.277 167.852 100.686 168.159C101.258 168.559 101.837 168.914 102.445 169.257C105.043 170.464 108.105 170.89 110.899 170.102L111.674 169.8C113.906 168.93 115.814 167.829 117.518 166.129C118.168 165.445 136.5 159.591 137.464 159.484V158.941C141.161 158.787 144.562 157.007 147.087 154.289C149.864 150.952 150.829 147.743 150.494 143.468L150.223 142.925H151.308C154.543 141.96 156.842 140.14 158.655 137.326C160.829 133.5 161.332 128.84 160.26 124.529L159.995 123.651C160.954 123.651 160.954 123.651 165.215 120.693L165.883 120.224C167.899 118.809 169.857 117.341 171.763 115.782C172.093 115.508 172.423 115.236 172.754 114.964C174.895 113.276 176.863 111.485 178.781 109.553L179.236 109.094C189.302 98.9721 199.989 85.2031 199.962 70.2145L199.952 69.3237C199.951 68.1034 200.185 66.6678 199.629 65.5571L199.577 65.4927C198.938 64.7066 198.557 64.2377 197.509 64.098C196.4 64.5762 196.4 64.5762 194.889 66.3895L194.472 66.9144C194.18 64.4356 193.981 62.0045 192.079 60.2296C190.965 59.7491 190.465 59.7373 189.314 60.1278C187.581 61.5298 186.645 63.6717 186.395 65.8455L186.328 66.9144H185.785L185.794 66.3588L185.802 65.625C185.813 64.7327 185.78 63.9673 185.513 63.1139C184.932 61.5878 184.331 60.5775 182.799 59.8563C181.665 59.6944 181.069 59.7759 180.033 60.2635C178.482 61.6426 178.136 63.1609 177.793 65.1329C175.521 78.3439 167.029 89.9265 156.466 97.8616L156.738 97.3187C158.329 92.8276 158.677 87.1446 157.06 82.6192L156.738 81.8451C156.23 80.4831 155.638 79.2627 154.856 78.0361C152.685 74.9713 149.59 72.0958 145.783 71.3512L145.065 71.2579C145.075 70.7698 145.085 70.2817 145.091 69.7935L145.099 69.188C145.112 68.608 145.118 68.0309 145.107 67.4508C144.921 65.0999 143.482 62.6628 141.771 61.1023L141.264 60.6707C140.137 59.6582 139.018 58.9442 137.599 58.3972C135.252 57.6755 132.105 57.4555 129.824 58.4916L129.252 58.7874L128.671 59.0854L128.234 59.3134C128.375 57.0615 127.92 55.4911 126.775 53.5617C125.059 50.9577 122.323 49.1223 119.275 48.4547C115.897 48.1541 113.12 48.5092 110.313 50.5098C109.702 50.9497 109.067 51.3346 108.417 51.7123Z" fill="#95BAD5"/>
<path d="M131.732 158.34C131.993 158.379 132.253 158.417 132.522 158.456C133.667 158.597 134.783 158.584 135.943 158.56C136.15 158.557 136.357 158.554 136.57 158.55C137.063 158.542 137.555 158.532 138.047 158.521C138.797 160.755 139.323 163.033 139.841 165.327C139.931 165.722 140.021 166.117 140.111 166.512C140.346 167.543 140.58 168.574 140.814 169.605C141.053 170.66 141.294 171.716 141.534 172.771C142.004 174.836 142.473 176.9 142.941 178.965C143.296 178.97 143.65 178.975 144.016 178.98C144.489 178.988 144.962 178.996 145.435 179.004C145.668 179.007 145.901 179.01 146.141 179.013C149.764 179.077 153.088 179.556 155.711 181.961C156.863 183.243 157.441 184.293 157.517 185.986C157.298 186.967 157.037 187.386 156.251 188.088C154.935 188.877 153.661 189.144 152.156 189.467C151.848 189.536 151.539 189.606 151.222 189.677C150.222 189.898 149.222 190.113 148.22 190.326C147.888 190.397 147.556 190.468 147.214 190.541C145.176 190.974 143.136 191.39 141.093 191.793C140.393 191.933 139.693 192.074 138.994 192.218C137.966 192.43 136.936 192.635 135.906 192.838C135.595 192.903 135.284 192.968 134.964 193.036C133.168 193.379 132.119 193.463 130.54 192.634C128.552 191.307 128.353 189.71 127.848 187.573C127.776 187.269 127.704 186.965 127.63 186.652C126.634 182.359 125.824 178.027 124.997 173.699C124.773 172.534 124.549 171.37 124.324 170.205C123.887 167.941 123.452 165.676 123.019 163.411C123.166 163.322 123.312 163.232 123.463 163.14C124.14 162.727 124.815 162.31 125.49 161.893C125.72 161.753 125.951 161.612 126.188 161.468C127.543 160.628 128.712 159.771 129.827 158.667C130.505 158.214 130.929 158.269 131.732 158.34Z" fill="#719CBA"/>
<path d="M81.2474 167.831C81.469 167.973 81.6905 168.115 81.9188 168.262C82.9043 168.863 83.9263 169.311 84.9919 169.768C85.182 169.85 85.372 169.933 85.5679 170.017C86.0199 170.213 86.4727 170.407 86.9256 170.6C86.6868 172.945 86.2265 175.237 85.7521 177.54C85.6711 177.937 85.5902 178.334 85.5094 178.731C85.2983 179.767 85.0859 180.803 84.8733 181.838C84.6559 182.899 84.4396 183.959 84.2232 185.02C83.7998 187.094 83.3751 189.168 82.9495 191.242C83.2707 191.393 83.592 191.544 83.9229 191.7C84.3506 191.902 84.7783 192.104 85.2059 192.307C85.4169 192.406 85.6279 192.505 85.8452 192.607C89.1191 194.16 91.9496 195.966 93.3461 199.24C93.8672 200.882 93.9608 202.078 93.3319 203.651C92.7277 204.454 92.3165 204.728 91.3106 205.044C89.787 205.219 88.5157 204.937 87.0119 204.611C86.7025 204.547 86.393 204.482 86.0742 204.416C85.0725 204.206 84.0724 203.988 83.0725 203.769C82.7406 203.697 82.4086 203.624 82.0666 203.55C80.032 203.104 78.0019 202.641 75.9739 202.166C75.279 202.004 74.5834 201.844 73.8874 201.687C72.8631 201.456 71.8408 201.218 70.8185 200.978C70.5084 200.909 70.1982 200.84 69.8787 200.769C68.1013 200.342 67.1107 199.985 66.0139 198.578C64.7509 196.55 65.2288 195.013 65.6502 192.858C65.71 192.551 65.7697 192.245 65.8313 191.929C66.6948 187.607 67.7441 183.327 68.7756 179.043C69.0529 177.89 69.3285 176.736 69.6042 175.583C70.1405 173.34 70.6788 171.097 71.2183 168.855C71.3887 168.834 71.5591 168.813 71.7347 168.792C72.5219 168.694 73.3085 168.593 74.0951 168.492C74.363 168.459 74.631 168.426 74.9071 168.392C76.4871 168.186 77.9057 167.888 79.3773 167.342C80.1817 167.209 80.545 167.434 81.2474 167.831Z" fill="#719CBA"/>
<path d="M90.3998 77.951C94.1691 80.5607 96.8496 84.3092 98.2801 88.653C98.4123 89.185 98.4123 89.185 98.6989 89.3994C99.1391 89.3109 99.5768 89.2093 100.013 89.1025C101.899 88.6769 103.843 88.3701 105.77 88.6749C105.761 88.4262 105.752 88.1776 105.742 87.9214C105.922 83.5722 108.589 79.4918 111.555 76.491C115.248 73.1087 119.284 71.4171 124.265 71.0616C124.494 71.0451 124.494 71.0451 124.728 71.0281C127.115 70.8642 129.26 70.8912 131.529 71.7127C131.677 71.7634 131.825 71.814 131.978 71.8662C137.557 73.816 141.53 77.7606 144.208 82.9568C146.356 87.7016 146.42 93.3456 144.673 98.2023C142.699 103.381 139.008 107.396 133.982 109.762C128.984 111.976 123.089 112.057 118.013 110.112C113.105 108.019 109.034 104.099 106.956 99.1658C106.219 97.2025 105.792 95.3168 105.45 93.2306C103.324 93.3835 101.198 93.5365 99.0078 93.694C99.0486 94.2609 99.0894 94.8278 99.1314 95.4119C99.106 95.9219 99.106 95.9219 99.0471 96.3378C99.0251 96.4948 99.003 96.6517 98.9803 96.8135C98.9422 97.056 98.9422 97.056 98.9033 97.3034C98.8769 97.4745 98.8505 97.6456 98.8233 97.8219C97.9808 102.97 95.3016 107.869 91.0522 110.994C86.2844 114.186 80.2825 115.737 74.5528 114.659C72.8673 114.277 71.2906 113.593 69.7365 112.851C69.5137 112.747 69.2908 112.643 69.0612 112.536C64.3025 110.145 61.2319 105.94 59.3774 101.032C57.7146 95.9523 58.2765 90.3883 60.5185 85.6036C63.0689 80.6712 67.3486 76.8524 72.6543 75.1024C78.743 73.3845 85.192 74.4358 90.3998 77.951Z" fill="#54474F"/>
<path d="M87.2149 81.1122C90.7244 83.4108 93.3352 86.6646 94.2664 90.7975C94.7079 93.9243 94.9214 96.8911 93.8416 99.8934C93.7526 100.144 93.6635 100.395 93.5717 100.654C92.8076 102.551 91.6937 104.016 90.3627 105.54C90.2368 105.693 90.1109 105.846 89.9813 106.004C87.4884 108.819 83.4758 110.189 79.82 110.507C75.2564 110.767 71.1749 109.322 67.7542 106.303C64.839 103.471 62.9303 99.5181 62.8158 95.4142C62.8187 95.207 62.8216 94.9998 62.8246 94.7863C62.8256 94.5525 62.8266 94.3187 62.8276 94.0778C62.9708 90.0887 64.4734 86.9371 67.0065 83.9091C67.1263 83.7647 67.2461 83.6203 67.3696 83.4716C72.3663 77.9528 81.0435 77.452 87.2149 81.1122Z" fill="#FDFBF2"/>
<path d="M134.569 77.9694C137.766 80.4011 140.459 83.7579 141.167 87.8147C141.235 88.4228 141.282 89.0275 141.317 89.6385C141.331 89.8541 141.344 90.0696 141.358 90.2918C141.584 94.6644 140.281 98.5188 137.505 101.905C134.617 105.066 130.549 106.845 126.312 107.086C122.007 107.19 118.01 105.832 114.78 102.92C111.256 99.3863 109.862 95.2183 109.773 90.3295C109.885 86.1745 111.755 82.5543 114.672 79.6521C120.117 74.6876 128.341 73.908 134.569 77.9694Z" fill="#FDFAF2"/>
<path d="M132.109 83.6485C134.273 85.2131 136.156 87.4131 136.879 90.0259C137.097 91.5176 137.154 92.6002 136.302 93.8773C135.376 94.4611 134.967 94.5706 133.893 94.3693C132.979 93.9341 132.619 93.5138 132.277 92.5624C132.195 92.2852 132.112 92.0081 132.027 91.7225C131.409 89.6916 130.477 88.425 128.667 87.3112C127.109 86.8957 125.559 86.6771 124.027 87.2974C122.382 88.2706 121.401 89.4656 120.746 91.2793C120.559 92.061 120.536 92.8032 120.507 93.6058C120.395 95.3392 120.395 95.3392 119.607 96.0829C118.483 96.6453 117.983 96.645 116.791 96.2696C115.889 95.558 115.505 94.978 115.369 93.82C115.268 90.6242 116.341 87.8208 118.42 85.4109C121.963 81.6508 127.709 80.9138 132.109 83.6485Z" fill="#54474F"/>
<path d="M84.1631 88.4691C86.5428 90.0415 88.4434 92.0396 89.4769 94.7171C89.7354 96.1391 89.9295 97.2899 89.2224 98.6194C88.3463 99.3607 87.8028 99.4708 86.6604 99.4508C85.9308 99.1284 85.9308 99.1284 85.3031 98.3649C84.9907 97.5458 84.7326 96.7185 84.4759 95.8804C83.9962 94.447 83.1657 93.5657 81.8217 92.8635C80.0327 92.2596 78.1976 92.4576 76.4974 93.224C74.9879 94.0817 74.2673 95.1169 73.5622 96.6683C73.3731 97.4875 73.3083 98.224 73.2568 99.0605C73.1778 99.9948 73.0847 100.542 72.6799 101.402C71.806 102.036 71.1981 102.086 70.1349 102.03C69.558 101.894 69.558 101.894 68.8794 101.249C67.9545 99.6307 67.9512 98.0497 68.3863 96.2324C69.4975 92.9632 71.4144 90.3331 74.5123 88.7618C77.3226 87.428 81.2816 87.0409 84.1631 88.4691Z" fill="#54474F"/>
<path d="M121.123 114.093C122.109 114.668 122.622 115.207 123.023 116.264C123.71 122.706 121.265 129.684 117.236 134.691C114.868 137.415 112.2 139.364 108.635 140.153C103.928 140.394 100.585 139.722 96.9284 136.557C92.957 132.833 89.2092 127.218 88.9541 121.626C88.9787 120.565 89.0596 119.897 89.7346 119.064C90.7054 118.209 91.2021 118.108 92.4885 118.119C93.2276 118.169 93.9268 118.299 94.6549 118.436C101.767 119.597 110.038 118.554 116.399 115.063C117.986 114.192 119.301 113.74 121.123 114.093Z" fill="#54474F"/>
<path d="M105.327 128.667C105.606 128.663 105.886 128.658 106.173 128.654C108.587 128.652 110.66 129.131 112.809 130.245C113.024 130.354 113.239 130.463 113.46 130.576C114.063 130.923 114.604 131.309 115.15 131.738C114.601 133.745 113.312 135.044 111.597 136.189C109.006 137.559 106.021 137.906 103.166 137.239C100.728 136.357 98.0056 134.298 96.6907 132.009C96.6801 131.452 96.6801 131.452 96.9621 130.924C97.6344 130.48 97.6344 130.48 98.4891 130.075C98.767 129.94 99.0448 129.805 99.3311 129.666C101.373 128.813 103.139 128.66 105.327 128.667Z" fill="#EEAD89"/>
<path d="M32.9797 94.3845C33.8428 94.7551 34.1 95.351 34.5925 96.1427C39.3443 103.393 47.377 109.155 55.5131 111.983C56.2086 112.339 56.5093 112.694 56.9037 113.364C56.8383 114.279 56.7441 114.609 56.0893 115.264C54.3992 115.421 53.3373 115.132 51.8646 114.331C51.6781 114.233 51.4916 114.136 51.2995 114.035C46.8271 111.661 42.6942 108.953 38.9869 105.491C38.6093 105.162 38.2304 104.834 37.8501 104.507C36.2258 103.081 34.8022 101.597 33.4727 99.8923C33.3552 99.7429 33.2377 99.5934 33.1166 99.4394C32.065 98.0637 31.4664 96.9321 31.6573 95.1756C32.0585 94.5538 32.2297 94.3501 32.9797 94.3845Z" fill="#719CBA"/>
<path d="M12.383 89.2032C12.9026 89.9371 12.9026 89.9371 13.3671 90.8999C14.6243 93.3458 16.4255 95.146 18.3553 97.0758C18.4459 97.9274 18.4988 98.478 18.0329 99.2136C17.3584 99.6323 16.9702 99.6083 16.1836 99.519C13.3805 97.6812 10.7637 94.2794 9.66838 91.1035C9.60794 90.3792 9.60794 90.3792 9.66838 89.7462C10.513 88.7716 11.2001 88.834 12.383 89.2032Z" fill="#719CBA"/>
<path d="M6.41143 95.1755C7.13858 95.8806 7.54591 96.6245 7.95539 97.5338C8.78911 99.2843 10.2329 100.681 11.6393 101.99C12.1122 102.505 12.1122 102.505 12.214 103.353C12.1122 104.134 12.1122 104.134 11.5693 104.677C10.7601 104.862 10.4449 104.906 9.66902 104.677C7.22734 103.014 5.16217 100.44 4.2397 97.6187C4.13729 96.7311 4.08129 96.24 4.56207 95.4809C5.25131 95.0531 5.61441 95.02 6.41143 95.1755Z" fill="#719CBA"/>
<path d="M27.5127 34.7886C28.2542 35.0939 28.9181 35.4062 29.6165 35.7897C29.8153 35.8973 30.0141 36.0049 30.2189 36.1158C33.4489 37.9171 37.6277 40.3452 39.7286 43.4756C39.823 44.3345 39.823 44.3345 39.7286 45.1044C39.2705 45.6303 39.2705 45.6303 38.6428 45.9187C37.386 45.8265 36.7036 45.2733 35.7415 44.4936C35.4298 44.2466 35.1177 44.0002 34.8051 43.7544C34.6374 43.6221 34.4696 43.4898 34.2968 43.3535C31.6497 41.292 28.9823 39.3346 25.9676 37.8479C25.3409 37.5033 25.3409 37.5033 25.0695 36.9604C25.0016 36.146 25.0016 36.146 25.0695 35.3316C26.0389 34.6853 26.3683 34.6652 27.5127 34.7886Z" fill="#95BAD5"/>
<path d="M149.233 14.6045C150.031 14.6893 150.031 14.6893 150.574 15.2323C150.832 17.0625 150.09 18.3975 149.301 20.0168C148.493 21.7186 147.726 23.3931 147.112 25.1747C146.759 26.1279 146.496 26.7998 145.67 27.4143C144.873 27.7197 144.873 27.7197 144.262 27.7027C143.787 27.4482 143.787 27.4482 143.244 26.6338C142.979 24.749 143.763 23.2322 144.5 21.5269C144.673 21.1077 144.673 21.1077 144.851 20.6801C147.344 14.7973 147.344 14.7973 149.233 14.6045Z" fill="#95BAD5"/>
<path d="M126.142 11.1605C126.685 11.7034 126.685 11.7034 126.707 12.5581C126.686 12.9408 126.661 13.3232 126.634 13.7054C126.62 13.9137 126.605 14.122 126.591 14.3365C126.536 15.088 126.475 15.8388 126.413 16.5898C126.389 16.9058 126.365 17.2218 126.34 17.5473C126.259 18.575 126.167 19.6013 126.074 20.6278C126.047 20.9618 126.021 21.2958 125.994 21.6399C125.947 22.1121 125.947 22.1121 125.9 22.5938C125.875 22.8755 125.849 23.1572 125.823 23.4473C125.528 24.4242 125.094 24.7423 124.241 25.2767C123.512 25.2597 123.512 25.2597 122.884 25.0052C122.313 24.1483 122.277 24.009 122.328 23.0456C122.339 22.8173 122.351 22.589 122.362 22.3537C122.378 22.1089 122.393 21.8641 122.409 21.6119C122.423 21.3599 122.438 21.1079 122.453 20.8483C122.558 19.1157 122.688 17.3849 122.85 15.6566C122.877 15.3417 122.877 15.3417 122.904 15.0204C123.035 13.7623 123.287 12.7974 123.97 11.7034C124.845 11.12 125.128 11.0565 126.142 11.1605Z" fill="#95BAD5"/>
</svg>
