<svg width="200" height="205" viewBox="0 0 200 205" fill="none" xmlns="http://www.w3.org/2000/svg">
<path d="M111.741 34.9203L110.968 34.9489C105.553 41.1032 39.2686 38.0395 39.5478 46.0755L39.5692 46.6073C38.1641 46.5663 36.7999 46.4927 35.4269 46.8234L34.7012 47.1496C32.8603 47.9717 30.9412 48.801 29.4665 50.2082L29.0217 50.6742C28.6003 51.1048 28.1837 51.5401 27.7709 51.979C25.1649 54.9553 23.9958 58.1942 24.1156 62.159L24.1537 62.8749C22.9772 63.161 21.8492 63.4984 20.753 64.0187C17.4828 65.8715 14.9946 68.7794 13.7921 72.3559C13.1189 75.3313 13.6019 78.1945 14.9637 80.8752L15.2627 81.4471C15.4605 81.8341 15.6584 82.221 15.8564 82.6079L16.3106 83.4806C14.8796 84.2158 13.5949 84.9827 12.4018 86.069L11.9835 86.463C10.4501 87.8465 9.2148 89.4525 8.37678 91.3464C7.04187 95.2046 7.54754 98.5045 9.00853 102.188L9.00857 102.188C9.3479 102.906 9.34791 102.906 9.54943 103.544L9.16066 104.239C4.98322 109.771 2.59457 116.709 1.06225 123.396L0.895069 124.15C-0.03941 128.347 -0.03941 128.347 0.0230018 137.244L0.0287875 137.881C0.0779527 145.981 3.29339 154.146 8.55215 160.277C13.9252 165.977 20.5379 168.892 28.3203 169.135L29.2922 169.157C29.6003 169.774 29.8232 170.093 30.374 170.512C31.4393 170.626 32.1873 170.575 33.0785 169.97C33.5238 169.513 33.9742 169.06 34.4307 168.614C35.1974 168.591 35.1974 168.591 35.766 168.704L36.382 168.835C36.6303 168.886 62.4676 171.786 79.1256 168.662C85.3723 168.614 92.7098 168.462 97.687 166.897C97.8807 166.836 116.106 166.445 98.2566 166.716C100.95 166.524 120.753 166.139 123.138 165.09C126.889 163.276 130.641 160.38 132.122 156.325L132.333 155.6C134.683 155.673 136.751 155.504 139.008 154.847C143.075 153.502 146.034 150.979 148.019 147.195C149.615 143.581 149.549 139.824 148.256 136.146L148.019 135.537C148.662 135.374 149.285 135.206 149.912 134.995C154.021 132.95 156.98 129.867 158.591 125.524C159.752 121.565 159.215 117.828 157.491 114.152L157.214 113.576C157.755 113.576 157.755 113.576 158.331 113.254L159.108 112.762C161.721 111.134 164.242 109.445 166.632 107.5C166.918 107.265 167.204 107.031 167.492 106.797C172.31 103.087 176.643 98.4539 180.439 93.7039L181.014 92.97C183.824 89.4011 186.384 85.613 188.602 81.6471C195.964 68.1307 203.103 48.2949 198.593 32.7799C197.815 30.658 196.876 28.9769 194.807 27.8996C193.816 27.727 192.952 27.7446 192.035 28.2046C190.852 29.4752 190.34 30.6227 190.019 32.3033L189.939 32.7799C189.623 32.2192 189.623 32.2192 189.562 31.4497C189.413 30.1684 189.245 28.9062 188.928 27.655C188.339 25.9687 187.452 24.7268 185.882 23.8327C184.783 23.5385 183.972 23.688 182.975 24.2563C181.532 25.8236 181.083 27.3778 180.612 29.4236L180.473 30.0686C180.103 28.8546 179.707 27.6523 179.188 26.4931C178.475 25.1439 177.546 24.1267 176.08 23.6251C174.943 23.4177 174.4 23.4792 173.374 24.053C171.723 25.7253 171.137 27.8443 170.939 30.1251C170.893 30.7779 170.84 31.4302 170.783 32.0821L170.684 33.159C169.151 50.3537 165.193 69.9519 151.805 82.1249C151.989 81.5839 152.169 81.0415 152.346 80.4982C153.473 76.5527 153.167 72.6622 151.214 69.077C149.267 65.8945 146.457 63.6603 142.827 62.715L142.34 62.6038C143.078 60.6601 143.166 58.3786 142.77 56.3393L142.61 55.8256C141.873 53.3383 140.808 51.3535 139.007 49.4775C135.32 46.0075 131.414 44.7898 126.435 44.9425L125.572 44.9806C124.912 42.4989 124.175 40.2066 122.437 38.2638C119.466 35.5019 115.641 34.8379 111.741 34.9203Z" fill="#95BAD5"/>
<path d="M109.264 162.689C109.56 162.793 109.857 162.897 110.162 163.004C111.472 163.43 112.782 163.668 114.145 163.904C114.388 163.948 114.631 163.991 114.882 164.035C115.461 164.137 116.04 164.237 116.619 164.337C116.989 167.124 117.087 169.913 117.171 172.717C117.187 173.2 117.203 173.683 117.218 174.166C117.259 175.427 117.298 176.688 117.337 177.948C117.377 179.239 117.419 180.53 117.46 181.821C117.541 184.346 117.62 186.871 117.699 189.395C118.113 189.482 118.528 189.569 118.955 189.658C119.507 189.775 120.059 189.891 120.612 190.008C120.884 190.065 121.156 190.122 121.436 190.18C125.665 191.08 129.449 192.396 131.973 195.811C133.032 197.573 133.47 198.935 133.174 200.935C132.694 202.034 132.293 202.466 131.212 203.11C129.492 203.734 127.938 203.757 126.103 203.793C125.726 203.804 125.349 203.815 124.96 203.826C123.74 203.858 122.519 203.881 121.298 203.903C120.892 203.91 120.487 203.918 120.069 203.926C117.585 203.969 115.1 203.992 112.615 204C111.764 204.004 110.912 204.011 110.061 204.02C108.808 204.034 107.556 204.04 106.303 204.043C105.924 204.049 105.545 204.055 105.154 204.061C102.973 204.055 101.725 203.914 100.064 202.584C98.0379 200.577 98.1686 198.661 98.0633 196.044C98.0481 195.671 98.0329 195.299 98.0172 194.915C97.8272 189.66 97.8643 184.402 97.8797 179.145C97.8835 177.73 97.8851 176.315 97.8869 174.9C97.8907 172.148 97.8968 169.397 97.9044 166.645C98.0965 166.574 98.2886 166.503 98.4865 166.429C99.3733 166.098 100.258 165.764 101.143 165.429C101.446 165.317 101.748 165.205 102.059 165.09C103.836 164.415 105.4 163.677 106.958 162.637C107.855 162.261 108.339 162.422 109.264 162.689Z" fill="#719CBA"/>
<path d="M69.4656 164.611C69.7916 164.761 70.1175 164.911 70.4533 165.065C70.9848 165.266 71.518 165.463 72.0524 165.658C72.9503 165.994 73.8477 166.332 74.7451 166.669C75.1816 166.833 75.1816 166.833 75.627 167C76.0198 167.147 76.0198 167.147 76.4206 167.298C77.3093 167.622 78.2073 167.923 79.1074 168.223C79.1329 174.329 79.1316 180.434 79.1074 186.54C79.1063 186.901 79.1053 187.262 79.1042 187.633C79.098 189.528 79.0825 191.422 79.0496 193.316C79.0412 193.874 79.0359 194.431 79.0339 194.989C79.0106 200.22 79.0106 200.22 76.8498 202.33C75.123 203.652 73.3172 203.677 71.0736 203.765C70.7461 203.778 70.4187 203.791 70.0814 203.805C65.7508 203.962 61.4179 203.991 57.0838 204.003C56.1104 204.006 55.137 204.013 54.1637 204.022C52.7394 204.035 51.3154 204.041 49.891 204.044C49.4571 204.049 49.0233 204.055 48.5762 204.061C46.216 204.055 44.7741 203.987 42.986 202.646C41.9188 201.709 41.6788 201.034 41.6455 199.745C41.7347 197.731 42.4445 196.502 44.1147 195.067C48.2344 192.125 52.7693 190.842 58.0366 190.014C58.5154 184.45 58.8843 178.895 59.0367 173.318C59.1048 170.975 59.2398 168.658 59.5416 166.329C60.1884 166.243 60.1884 166.243 60.8483 166.155C61.424 166.075 61.9996 165.994 62.5753 165.914C62.9998 165.858 62.9998 165.858 63.4329 165.801C64.8468 165.601 66.0567 165.367 67.3477 164.835C68.572 164.434 68.572 164.434 69.4656 164.611Z" fill="#709AB9"/>
<path d="M63.0757 2.498C60.8381 3.00206 59.1981 4.35953 57.9754 6.27473C57.8788 6.93374 57.8036 7.59603 57.7426 8.25929C57.7091 8.61252 57.6755 8.96575 57.641 9.32968C57.6051 9.73673 57.6051 9.73673 57.5685 10.152C57.0348 10.2468 57.0348 10.2468 56.4903 10.3436C49.8055 12.0518 44.5296 18.8085 41.0952 24.4232C37.2161 31.0905 36.0185 39.0465 36.9826 46.6279C37.0258 46.9797 37.0691 47.3314 37.1136 47.6937C37.6105 51.0361 37.6105 51.0361 39.053 52.1127C41.3246 52.3675 42.9147 51.6356 44.8695 50.6161C45.1524 50.474 45.4354 50.3319 45.7269 50.1855C47.2453 49.4154 48.7417 48.6102 50.2292 47.7823C50.523 47.6193 50.8168 47.4563 51.1195 47.2883C51.6802 46.9746 52.2386 46.6569 52.7943 46.3344C56.0664 44.4889 59.4018 44.589 63.0787 44.4911C67.5598 44.3451 71.9667 44.0441 76.4137 43.4896C76.9503 43.4264 76.9503 43.4264 77.4977 43.362C87.2929 42.2074 96.94 40.4368 106.54 38.1988C106.847 38.1285 107.154 38.0583 107.47 37.9859C118.272 35.4978 118.272 35.4978 121.814 32.9662C122.275 31.6855 122.326 30.4412 122.221 29.0889C121.238 27.3795 120.007 26.4547 118.281 25.5395C117.009 25.2554 115.736 25.1432 114.438 25.0382C114.081 25.005 113.724 24.9718 113.355 24.9376C110.334 24.6692 107.315 24.5192 104.282 24.4624C104.218 24.1065 104.154 23.7506 104.088 23.3839C102.669 17.7819 97.4593 13.8319 92.7418 10.9921C89.0692 8.86272 85.6614 7.53411 81.4456 7.20045C80.7687 7.1401 80.0919 7.07926 79.4152 7.01799C78.353 6.92351 77.291 6.83196 76.2279 6.74858C75.1985 6.66665 74.1708 6.57243 73.1426 6.47609C72.8248 6.45408 72.5069 6.43207 72.1795 6.40939C71.1688 6.32975 71.1688 6.32975 69.77 5.94452C68.9258 4.95662 68.9258 4.95662 68.4225 3.84312C66.8068 2.50267 65.1366 2.48101 63.0757 2.498Z" fill="#5787A9"/>
<path d="M63.111 13.7834C58.9413 16.6959 57.1678 21.6586 56.1689 26.4426C55.7985 29.0265 55.9308 31.4969 56.2036 34.0794C56.2357 34.3897 56.2679 34.6999 56.301 35.0195C56.4952 36.5742 56.695 37.5462 57.752 38.7009C58.1057 38.5617 58.4594 38.4225 58.8238 38.279C71.7239 33.2775 85.2155 29.8719 98.6216 26.5261C96.6473 21.0455 91.781 17.1908 86.7657 14.5999C80.0801 11.526 69.8612 10.0314 63.111 13.7834Z" fill="#95BAD5"/>
<path d="M54.6416 17.9906C50.2899 21.4093 47.3308 25.2024 45.1158 30.3188C45.0002 30.573 44.8846 30.8271 44.7655 31.089C43.0898 35.3062 42.9569 40.6183 43.5696 45.0525C46.6666 43.8109 49.6607 42.4315 52.6286 40.9072C52.5673 40.4561 52.506 40.005 52.4428 39.5402C52.3627 38.9357 52.2828 38.3311 52.2029 37.7265C52.1624 37.4307 52.122 37.1349 52.0803 36.8301C51.228 30.3191 52.0483 24.0201 54.6416 17.9906Z" fill="#96BBD6"/>
<path d="M71.8955 62.8732C76.7173 66.2117 80.1464 71.007 81.9763 76.5638C82.1454 77.2443 82.1454 77.2443 82.512 77.5186C83.0752 77.4053 83.6351 77.2754 84.1932 77.1388C86.6052 76.5943 89.0925 76.2019 91.5571 76.5918C91.5456 76.2737 91.5341 75.9556 91.5223 75.6279C91.752 70.0641 95.1645 64.8444 98.9587 61.0056C103.683 56.6788 108.846 54.5148 115.218 54.0601C115.511 54.0388 115.511 54.0388 115.809 54.0172C118.863 53.8075 121.607 53.842 124.51 54.8929C124.7 54.9577 124.889 55.0226 125.084 55.0893C132.221 57.5836 137.303 62.6297 140.729 69.2769C143.478 75.3467 143.56 82.5667 141.325 88.7797C138.799 95.4046 134.077 100.541 127.648 103.567C121.254 106.4 113.712 106.503 107.219 104.015C100.941 101.338 95.7329 96.3225 93.0749 90.0122C92.1325 87.5007 91.5856 85.0884 91.1481 82.4196C88.4286 82.6153 85.7091 82.8109 82.9073 83.0125C82.9594 83.7377 83.0116 84.4629 83.0654 85.21C83.0328 85.8624 83.0328 85.8624 82.9575 86.3945C82.9293 86.5953 82.9011 86.7961 82.872 87.003C82.8232 87.3133 82.8232 87.3133 82.7735 87.6298C82.7397 87.8486 82.706 88.0675 82.6712 88.293C81.5935 94.879 78.1661 101.145 72.7301 105.144C66.6308 109.227 58.953 111.21 51.6232 109.832C49.467 109.343 47.4501 108.469 45.462 107.52C45.177 107.386 44.8919 107.253 44.5982 107.116C38.5105 104.057 34.5825 98.6782 32.2101 92.4C30.0831 85.9013 30.8018 78.7836 33.6699 72.6628C36.9325 66.3531 42.4073 61.4679 49.1946 59.2292C56.9836 57.0316 65.2333 58.3764 71.8955 62.8732Z" fill="#54474F"/>
<path d="M67.8216 66.9172C72.3111 69.8577 75.651 74.0202 76.8422 79.3071C77.407 83.3071 77.6801 87.1024 76.2988 90.9431C76.1849 91.2641 76.0709 91.5852 75.9536 91.916C74.9761 94.3433 73.551 96.2169 71.8484 98.1661C71.6874 98.3621 71.5264 98.558 71.3605 98.7599C68.1714 102.361 63.0384 104.114 58.3617 104.521C52.5238 104.853 47.3025 103.005 42.9265 99.1424C39.1973 95.5196 36.7556 90.463 36.6092 85.213C36.6129 84.948 36.6166 84.6829 36.6204 84.4098C36.6217 84.1107 36.6229 83.8116 36.6242 83.5035C36.8074 78.4004 38.7296 74.3688 41.97 70.4952C42.1233 70.3105 42.2766 70.1258 42.4345 69.9355C48.8265 62.8757 59.9269 62.235 67.8216 66.9172Z" fill="#FDFBF2"/>
<path d="M128.4 62.8966C132.489 66.0074 135.934 70.3015 136.84 75.4912C136.928 76.2692 136.988 77.0427 137.033 77.8243C137.05 78.1001 137.067 78.3759 137.085 78.66C137.374 84.2537 135.707 89.1844 132.156 93.5168C128.462 97.5604 123.257 99.8362 117.837 100.144C112.33 100.278 107.217 98.5398 103.085 94.8145C98.5761 90.2941 96.7938 84.9622 96.6798 78.7083C96.8226 73.393 99.2154 68.7619 102.946 65.0493C109.912 58.6985 120.432 57.7012 128.4 62.8966Z" fill="#FDFAF2"/>
<path d="M64.24 74.4767C66.7742 76.0976 68.5875 78.5819 69.4438 81.4733C70.2312 85.6143 69.9524 89.3318 67.6075 92.9488C65.6846 95.4218 63.1407 96.9938 60.0322 97.4252C56.6385 97.7635 53.7547 97.3229 50.9302 95.2531C48.1035 92.8148 46.6314 89.5504 46.3205 85.8689C46.0684 82.2801 47.1937 79.0401 49.5666 76.2992C53.7721 72.5772 59.2591 71.7669 64.24 74.4767Z" fill="#53464E"/>
<path d="M121.496 70.6586C123.965 72.4303 125.509 74.789 126.426 77.6727C127.016 81.5356 126.736 84.8821 124.704 88.2889C124.438 88.7438 124.438 88.7438 124.166 89.2078C122.11 91.5834 119.722 92.842 116.609 93.118C116.237 93.1441 116.237 93.1441 115.857 93.1707C115.473 93.1977 115.473 93.1977 115.08 93.2253C113.251 93.3241 111.746 93.2233 110.088 92.3778C109.794 92.2452 109.5 92.1126 109.197 91.976C106.429 90.0598 104.548 87.5538 103.707 84.2773C103.067 80.5477 103.238 77.2804 105.242 73.9873C109.036 68.6557 115.847 67.161 121.496 70.6586Z" fill="#54484F"/>
<path d="M83.498 111.309C82.8798 110.529 82.301 109.773 81.5321 109.136C80.3766 109.075 79.3954 109.155 78.9777 110.34C79.0159 111.584 79.1977 112.451 79.877 113.495C81.9601 116.192 84.9133 117.929 88.2301 118.585C91.4472 118.862 94.6534 118.036 97.3261 116.231C99.7287 114.48 101.523 112.061 102.034 109.084C101.986 107.833 101.938 107.411 101.098 106.483C100.157 106.367 100.157 106.367 99.1853 106.495C98.6345 107.107 98.3 107.67 97.9825 108.43C97.4821 109.838 97.0213 110.95 95.8638 111.919L95.4004 112.27C94.6868 112.874 94.0143 113.331 93.1536 113.702C90.8468 114.252 88.7572 114.59 86.5404 113.595C85.6912 113.174 84.7176 112.065 84.0323 111.824L83.498 111.309Z" fill="#54474F"/>
<path d="M31.7965 124.149C36.0295 124.373 40.2597 124.642 44.4902 124.909C46.2331 125.019 47.9761 125.129 49.719 125.238C50.0017 125.256 50.0017 125.256 50.2902 125.274C52.4934 125.413 54.6968 125.549 56.9007 125.677C57.2053 125.695 57.2053 125.695 57.5162 125.713C57.7086 125.724 57.901 125.735 58.0992 125.747C61.5123 125.945 64.91 126.2 68.3071 126.589C68.1742 128.994 67.7997 131.324 67.3464 133.684C67.1302 134.812 66.9199 135.94 66.7097 137.068C66.6417 137.433 66.6417 137.433 66.5723 137.805C65.936 141.237 65.3572 144.679 64.7718 148.12C64.2548 151.157 63.732 154.19 63.1337 157.211C63.0888 157.44 63.0439 157.668 62.9977 157.903C62.7928 158.944 62.5837 159.983 62.3656 161.02C61.7267 164.161 61.476 167.341 62.0867 170.511C57.5803 169.906 53.1081 169.14 48.6319 168.342C47.954 168.222 47.2762 168.102 46.5983 167.982C45.0101 167.701 43.422 167.419 41.834 167.136C40.6279 166.922 39.4217 166.709 38.2154 166.495C38.0254 166.462 37.8354 166.428 37.6397 166.393C37.2245 166.32 36.8093 166.247 36.3941 166.173C36.4627 165.63 36.5314 165.086 36.6 164.542C36.8475 162.479 36.5379 160.81 35.8532 158.853C36.1225 158.73 36.1225 158.73 36.3973 158.604C38.6183 157.548 39.9443 156.451 41.0044 154.194C41.5755 152.502 41.5615 150.672 40.8903 149.008C39.8199 147.189 37.7565 146.246 35.9546 145.297C33.3939 143.917 31.8652 142.309 30.7147 139.603C29.5257 134.57 30.6538 129.076 31.7965 124.149Z" fill="#FDFBF2"/>
<path d="M33.0306 114.524C33.6899 114.659 33.6899 114.659 34.18 114.948C34.6852 115.774 34.6751 116.448 34.5012 117.371C34.1 118.568 33.6313 119.73 33.149 120.895C35.6494 121.039 38.1499 121.176 40.6518 121.293C46.0006 121.542 51.3392 121.833 56.678 122.251C57.2707 122.296 57.8633 122.342 58.456 122.387C59.3335 122.453 60.2109 122.521 61.0882 122.591C62.6165 122.712 64.1446 122.823 65.6747 122.919C66.1573 122.952 66.1573 122.952 66.6496 122.984C67.2675 123.026 67.8856 123.064 68.5039 123.099C68.7814 123.118 69.0589 123.137 69.3447 123.157C69.5889 123.172 69.8331 123.187 70.0846 123.202C70.8691 123.362 71.2622 123.577 71.8231 124.149C71.9659 124.898 71.8734 125.549 71.8231 126.318C72.0155 126.314 72.2079 126.309 72.4061 126.305C73.2766 126.288 74.1472 126.278 75.0178 126.267C75.3206 126.26 75.6234 126.253 75.9353 126.246C76.2256 126.244 76.5158 126.241 76.8148 126.239C77.0825 126.234 77.3502 126.23 77.626 126.226C78.3139 126.318 78.3139 126.318 78.8133 126.611C79.7501 128.174 78.8682 130.575 78.5315 132.231C78.4699 132.542 78.4082 132.853 78.3447 133.173C78.1445 134.181 77.9418 135.189 77.7392 136.197C77.4634 137.582 77.1888 138.966 76.9141 140.351C76.8468 140.689 76.7794 141.028 76.71 141.377C76.2034 143.928 75.7217 146.483 75.2545 149.042C71.3851 169.916 71.3851 169.916 66.6846 173.223C64.4602 174.527 61.9712 174.088 59.5367 173.657C59.1761 173.596 59.1761 173.596 58.8083 173.533C58.0189 173.398 57.2301 173.26 56.4414 173.121C55.8867 173.025 55.3319 172.929 54.7772 172.834C49.7524 171.959 44.7445 170.995 39.7402 170.01C39.4497 169.953 39.1592 169.896 38.8599 169.838C38.3145 169.73 37.7692 169.623 37.224 169.514C36.9831 169.467 36.7421 169.419 36.4939 169.37C36.2842 169.329 36.0745 169.287 35.8585 169.244C35.2712 169.134 35.2712 169.134 34.5012 169.156C34.0446 169.602 33.5942 170.054 33.149 170.512C32.2577 171.117 31.5098 171.167 30.4445 171.054C29.9374 170.732 29.9374 170.732 29.6331 170.24C29.5243 169.613 29.5243 169.613 29.6331 168.885C30.2554 168.236 30.2554 168.236 31.0699 167.58C32.5694 166.301 33.2394 165.351 33.4997 163.404C33.5949 161.854 33.2153 160.67 32.3376 159.395C31.9611 159.035 31.9611 159.035 31.577 158.667C30.9854 158.04 30.9854 158.04 31.0023 157.311C31.2558 156.684 31.2558 156.684 31.7967 156.142C32.4242 156.068 32.4242 156.068 33.1828 156.04C34.8956 155.912 36.1601 155.463 37.4592 154.329C37.9061 153.354 38.0565 152.333 38.017 151.262C37.6726 150.38 37.3407 150.007 36.5127 149.564C36.2247 149.404 36.2247 149.404 35.931 149.242C35.6249 149.076 35.6249 149.076 35.3126 148.906C31.5389 146.762 28.7663 144.179 27.4186 139.955C27.0562 138.479 27.0503 137.05 27.0808 135.536C27.0847 135.217 27.0887 134.897 27.0928 134.568C27.1753 130.685 28.305 115.448 33.0306 114.524ZM31.7967 124.149C30.959 127.761 30.3114 131.292 30.3092 135.011C30.3077 135.299 30.3061 135.587 30.3045 135.883C30.3485 138.652 31.0409 141.014 32.8785 143.128C34.6606 144.7 36.7249 145.826 38.8104 146.935C40.0961 147.758 40.8142 148.719 41.2624 150.177C41.6328 152.637 41.094 154.673 39.6397 156.684C38.5046 157.714 37.2732 158.308 35.8535 158.853C35.912 159.021 35.9706 159.188 36.0309 159.36C36.8183 161.761 36.7145 163.704 36.3943 166.174C36.6103 166.21 36.8262 166.247 37.0487 166.284C38.1266 166.467 39.2044 166.65 40.282 166.834C40.4853 166.869 40.6885 166.904 40.8979 166.939C43.7363 167.425 46.5714 167.926 49.4044 168.442C49.7056 168.497 50.0068 168.552 50.3172 168.608C51.8168 168.881 53.3163 169.155 54.8154 169.431C55.3746 169.533 55.9339 169.635 56.4931 169.737C56.7449 169.784 56.9968 169.831 57.2562 169.879C58.862 170.171 60.4609 170.373 62.087 170.512C62.0444 170.283 62.0019 170.055 61.9581 169.82C61.3836 166.025 62.0813 162.486 62.8185 158.77C63.3166 156.236 63.7506 153.69 64.1946 151.147C64.4573 149.642 64.7216 148.138 64.9859 146.633C65.0379 146.337 65.09 146.041 65.1436 145.735C65.7484 142.294 66.3647 138.855 66.983 135.416C67.0859 134.843 67.1884 134.27 67.2907 133.697C67.4346 132.893 67.5811 132.089 67.7286 131.285C67.8039 130.87 67.8792 130.455 67.9545 130.04C68.0076 129.754 68.0076 129.754 68.0619 129.463C68.2363 128.493 68.3471 127.575 68.3073 126.589C62.47 125.913 56.6275 125.573 50.7609 125.269C46.1501 125.03 41.5457 124.737 36.9413 124.397C36.7136 124.38 36.4859 124.363 36.2513 124.346C35.833 124.315 35.4148 124.284 34.9966 124.252C33.9273 124.173 32.8688 124.134 31.7967 124.149Z" fill="#54474F"/>
<path d="M71.0113 129.571C72.5285 129.571 74.0457 129.571 75.6089 129.571C75.3044 132.014 75.3044 132.014 75.0776 133.22C75.0267 133.492 74.9758 133.764 74.9233 134.045C74.8682 134.334 74.8132 134.624 74.7564 134.923C74.6981 135.231 74.6398 135.54 74.5797 135.858C74.3888 136.864 74.1963 137.869 74.0032 138.874C73.9372 139.218 73.8713 139.562 73.8033 139.916C72.9189 144.506 71.9859 149.081 70.9268 153.634C70.8743 153.861 70.8218 154.088 70.7677 154.323C70.1789 156.859 69.5331 159.377 68.834 161.885C68.7703 162.118 68.7066 162.35 68.641 162.59C68.0558 164.648 67.1965 166.484 66.1432 168.342C65.7862 168.342 65.4292 168.342 65.0614 168.342C64.31 166.083 64.8972 163.538 65.3255 161.258C65.409 160.796 65.409 160.796 65.4941 160.325C65.6743 159.331 65.858 158.338 66.0418 157.345C66.1676 156.654 66.293 155.964 66.4182 155.273C66.6649 153.914 66.9127 152.555 67.1615 151.196C67.5388 149.131 67.9045 147.065 68.2649 144.997C69.1624 139.852 70.0884 134.712 71.0113 129.571Z" fill="#FDFBF2"/>
<path d="M45.6911 129.521C46.253 129.571 46.8149 129.62 47.3769 129.67C48.2238 129.746 49.0708 129.821 49.9176 129.897C51.438 130.034 52.9585 130.165 54.4801 130.286C55.3138 130.352 56.1473 130.421 56.9808 130.49C57.3625 130.521 57.7443 130.551 58.1262 130.58C58.6481 130.619 59.1696 130.663 59.691 130.708C59.9798 130.731 60.2685 130.754 60.566 130.777C61.3526 130.943 61.6335 131.081 62.087 131.74C62.1715 132.706 62.1715 132.706 62.087 133.638C61.5461 134.181 61.5461 134.181 60.7059 134.245C58.0206 134.221 55.3659 134.077 52.691 133.844C52.2732 133.808 51.8553 133.773 51.4375 133.738C50.5706 133.665 49.7038 133.591 48.8371 133.515C47.7336 133.419 46.6297 133.327 45.5258 133.235C44.6663 133.163 43.8069 133.089 42.9475 133.015C42.5407 132.981 42.1338 132.946 41.7269 132.912C36.5711 132.481 36.5711 132.481 35.3126 132.012C34.7717 131.198 34.7717 131.198 34.8393 130.215C34.9062 129.913 34.9732 129.611 35.0421 129.3C37.6922 127.972 42.841 129.262 45.6911 129.521Z" fill="#54474F"/>
<path d="M35.6864 135.739C38.3434 135.761 40.9637 135.99 43.6054 136.253C44.0836 136.3 44.5617 136.347 45.0398 136.393C46.0341 136.491 47.0282 136.59 48.0223 136.689C49.2966 136.817 50.5714 136.94 51.8463 137.061C52.8302 137.156 53.8139 137.254 54.7974 137.352C55.2676 137.399 55.738 137.444 56.2085 137.489C56.8631 137.551 57.5172 137.617 58.1712 137.685C58.4621 137.711 58.4621 137.711 58.7587 137.738C59.5236 137.821 60.0846 137.899 60.7194 138.35C61.1753 139.052 61.1063 139.604 61.005 140.417C60.5823 140.987 60.3459 141.204 59.641 141.325C57.1422 141.263 54.6613 141.032 52.1742 140.794C51.9366 140.771 51.699 140.748 51.4542 140.725C50.2008 140.606 48.9475 140.485 47.6943 140.363C46.4019 140.237 45.1089 140.117 43.8158 139.998C42.8181 139.906 41.8208 139.809 40.8236 139.711C40.3468 139.665 39.8699 139.62 39.3928 139.577C38.7276 139.517 38.0633 139.451 37.3989 139.383C37.1045 139.359 37.1045 139.359 36.8041 139.334C35.9058 139.236 35.3665 139.102 34.639 138.551C34.2306 137.976 34.2306 137.976 34.2644 137.129C34.5449 136.205 34.6989 135.844 35.6864 135.739Z" fill="#54474F"/>
<path d="M51.3042 162.003C51.6853 162.049 52.0665 162.095 52.4479 162.139C52.9919 162.203 53.5354 162.272 54.0788 162.342C54.5559 162.401 54.5559 162.401 55.0426 162.461C55.8968 162.656 56.3389 162.836 56.9481 163.462C57.0496 164.428 57.0496 164.428 56.9481 165.36C56.4072 165.902 56.4072 165.902 55.8204 165.977C53.458 165.969 51.1529 165.708 48.8167 165.383C48.1528 165.292 47.4881 165.208 46.8232 165.124C46.3978 165.066 45.9724 165.008 45.547 164.949C45.3498 164.925 45.1526 164.901 44.9495 164.876C44.0471 164.744 43.4831 164.592 42.7596 164.023C42.3439 163.462 42.3439 163.462 42.2256 162.767C42.7382 159.904 49.1422 161.74 51.3042 162.003Z" fill="#54474F"/>
<path d="M45.6706 143.688C48.0223 143.619 50.3159 143.847 52.6497 144.106C53.3127 144.179 53.9762 144.247 54.6397 144.315C55.0659 144.362 55.492 144.409 55.918 144.456C56.2122 144.485 56.2122 144.485 56.5123 144.515C57.7362 144.657 58.6659 144.973 59.7339 145.586C59.8772 148.114 59.4949 150.535 59.0852 153.02C58.9725 153.707 58.8657 154.396 58.7593 155.084C58.6884 155.524 58.6171 155.964 58.5454 156.404C58.4984 156.711 58.4984 156.711 58.4505 157.024C58.2693 158.092 58.1142 158.935 57.2999 159.684C56.8037 159.807 56.8037 159.807 56.2075 159.783C55.8476 159.768 55.8476 159.768 55.4804 159.753C53.7472 159.619 52.0189 159.457 50.291 159.266C49.6221 159.192 48.9527 159.125 48.2831 159.057C47.8552 159.01 47.4274 158.964 46.9996 158.916C46.8007 158.897 46.6018 158.877 46.3968 158.857C44.4643 158.632 44.4643 158.632 43.7774 157.786C43.7072 156.976 43.7072 156.976 43.8028 155.984C43.8191 155.805 43.8354 155.626 43.8523 155.442C44.0568 153.354 44.3859 151.282 44.724 149.212C44.7858 148.824 44.8474 148.436 44.9089 148.048C45.3793 145.098 45.3793 145.098 45.6706 143.688Z" fill="#54474F"/>
<path d="M48.3744 146.941C53.7747 147.464 53.7747 147.464 56.2174 148.026C56.0981 150.895 55.721 153.622 55.1356 156.431C53.35 156.46 51.6194 156.353 49.8449 156.16C49.5979 156.134 49.3509 156.108 49.0965 156.081C48.495 156.018 47.8938 155.954 47.2926 155.889C46.9542 154.871 47.1094 154.272 47.2915 153.217C47.3219 153.037 47.3523 152.858 47.3836 152.673C47.481 152.101 47.5812 151.529 47.6814 150.957C47.7479 150.569 47.8143 150.181 47.8805 149.793C48.0431 148.842 48.2081 147.892 48.3744 146.941Z" fill="#FDFBF2"/>
<path d="M34.18 114.948C33.6899 114.659 33.6899 114.659 33.0306 114.524C28.305 115.448 27.1753 130.685 27.0928 134.568L27.0808 135.536C27.0503 137.05 27.0562 138.479 27.4186 139.955C28.7663 144.179 31.5389 146.762 35.3126 148.906L35.931 149.242L36.5127 149.564C37.3407 150.007 37.6726 150.38 38.017 151.262C38.0565 152.333 37.9061 153.354 37.4592 154.329C36.1601 155.463 34.8956 155.912 33.1828 156.04C32.4242 156.068 32.4242 156.068 31.7967 156.142C31.2558 156.684 31.2558 156.684 31.0023 157.311C30.9854 158.04 30.9854 158.04 31.577 158.667L32.3376 159.395C33.2153 160.67 33.5949 161.854 33.4997 163.404C33.2394 165.351 32.5694 166.301 31.0699 167.58C30.2554 168.236 30.2554 168.236 29.6332 168.885L29.6331 168.885C29.5243 169.613 29.5243 169.613 29.6331 170.24C29.9374 170.732 29.9374 170.732 30.4445 171.054C31.5098 171.167 32.2577 171.117 33.149 170.512C33.5942 170.054 35.3983 168.662 36.3943 166.174C36.7145 163.704 36.8183 161.761 36.0309 159.36L35.8535 158.853C37.2732 158.308 38.5046 157.714 39.6397 156.684C41.094 154.673 41.6328 152.637 41.2624 150.177C40.8142 148.719 40.0961 147.758 38.8104 146.935C36.7249 145.826 34.6606 144.7 32.8785 143.128C31.0409 141.014 30.3485 138.652 30.3045 135.883L30.3092 135.011C30.3114 131.292 30.959 127.761 31.7967 124.149C32.279 122.983 34.1 118.568 34.5012 117.371C34.6751 116.448 34.6852 115.774 34.18 114.948Z" fill="#719CBA"/>
</svg>
