<svg width="120" height="138" viewBox="0 0 120 138" fill="none" xmlns="http://www.w3.org/2000/svg">
<path d="M89.4604 22.6353C89.3519 22.6188 50.3503 17.0699 49.1058 16.7547L48.4655 16.8828C48.1537 16.9459 47.8417 17.0082 47.5296 17.0699C45.6405 17.413 43.7601 17.7924 42.0141 18.6178C39.2863 19.9814 36.72 22.2164 35.6791 25.164L35.5504 25.5814C33.2463 24.95 30.9382 24.8682 28.6145 25.4485L28.1423 25.5814C24.6584 26.5331 21.711 28.6449 19.5815 31.5316C17.7113 34.1922 16.6252 37.6164 17.1907 40.8688L17.2664 41.1859C15.5827 41.7082 13.8011 42.5184 12.5009 43.7398L12.2226 44.0231C11.1377 45.0947 10.2064 46.176 9.49869 47.5381C7.43689 51.8043 7.79534 56.7399 9.24748 61.1064L9.3854 61.519C6.49506 64.353 3.92752 67.6747 2.12438 71.3071L1.97723 71.6067C0.863705 73.8453 0.0820254 76.1477 0.000469233 78.666C-0.0210895 81.6736 0.696957 84.5764 2.83245 86.8078L3.08057 87.0535C3.99565 88.0408 5.00528 88.8218 6.19493 89.4487L6.51867 89.6148C8.01598 90.4009 9.53213 90.7362 11.2214 90.728L11.73 90.7182L11.7708 90.718C12.5988 90.7141 13.4117 90.7103 14.2335 90.5975L14.5869 90.5211C14.2417 91.4339 14.2347 92.289 14.2362 93.2595L14.2421 93.8607C14.2425 94.6955 14.1721 95.5654 14.3449 96.3857L14.4293 96.6684C15.0388 99.1525 16.0696 101.411 17.8378 103.298C20.3827 105.716 23.2571 106.645 26.7388 106.626L27.3246 106.618C27.8933 106.614 28.4619 106.61 29.0306 106.603L29.4032 106.598C30.5354 109.357 32.4584 111.417 35.0831 112.809L35.4027 112.972C35.9675 113.266 36.5162 113.497 37.1324 113.663L37.641 113.787C37.8157 113.83 39.3743 114.151 39.5439 114.193C39.6766 114.225 51.5203 114.162 51.6491 114.193C51.9818 114.301 52.6086 114.695 52.9416 114.801L53.356 114.934C56.7982 116.05 59.9695 116.181 63.4823 115.31L63.8827 115.208C65.1916 114.883 66.2809 114.384 67.4193 113.662L67.8005 113.419C68.346 113.129 68.7068 112.986 69.3188 113.162C72.2281 116.614 83.8133 113.174 83.94 113.219C85.9864 112.305 87.7678 110.757 89.0232 108.915L89.2991 108.49C92.9687 108.993 95.8753 108.895 99.0574 106.818L99.3868 106.598C99.2818 107.019 99.1769 107.439 99.0715 107.859C98.2905 110.937 97.0093 114.497 98.0667 117.642C98.4018 118.283 98.6919 118.629 99.3868 118.893C100.619 119.035 101.672 118.98 102.779 118.4L103.012 118.262L103.03 118.648L103.061 119.159C103.089 119.663 103.089 119.663 103.17 120.154C103.426 120.672 103.584 120.902 104.066 121.228C105.548 121.759 105.548 121.759 109.002 120.311V119.996H109.632L109.79 120.469C110.184 120.735 110.184 120.735 110.735 120.942C111.722 121.117 112.476 120.885 113.341 120.406C116.48 118.377 117.814 114.859 118.681 111.392L118.774 111.012C118.947 110.305 119.09 109.603 119.193 108.883L119.247 108.49C120.704 98.0113 119.442 87.0398 116.272 76.9855L116.084 76.4003L115.909 75.8538C115.705 75.229 115.525 74.6272 115.464 73.971C117.143 71.4532 117.634 68.6796 117.667 65.7012C117.67 65.4376 117.673 65.174 117.677 64.9105C117.699 63.6374 117.684 62.4382 117.404 61.1902C116.478 57.6914 114.461 54.6065 111.336 52.702C110.919 52.4685 110.642 52.3497 110.43 51.9176C110.398 51.5796 110.398 51.5796 110.555 51.2545C110.866 50.714 111.141 50.159 111.402 49.5927C112.263 47.2937 112.184 44.3428 111.293 42.0627L111.051 41.5011C109.841 38.6511 108.001 36.5217 105.376 34.8909C103.363 33.8002 100.915 33.2982 98.6621 33.939L98.2834 34.093C98.1349 30.8711 96.9497 27.6242 94.5215 25.3912L94.1853 25.1086C92.8344 23.968 91.1973 23.0388 89.4604 22.6353Z" fill="#95BAD5"/>
<path d="M75.0292 1.24502C76.1442 1.4962 76.9614 2.17263 77.5707 3.12698C77.6188 3.45537 77.6563 3.78539 77.6867 4.11589C77.7034 4.29191 77.7201 4.46792 77.7373 4.64927C77.7552 4.85211 77.7552 4.85211 77.7735 5.05904C78.0394 5.10629 78.0394 5.10629 78.3107 5.1545C81.6418 6.0057 84.2708 9.37258 85.9822 12.1704C87.9151 15.4927 88.5119 19.4573 88.0315 23.2351C88.01 23.4104 87.9884 23.5856 87.9662 23.7662C87.7186 25.4317 87.7186 25.4317 86.9998 25.9682C85.8678 26.0952 85.0755 25.7304 84.1014 25.2224C83.9604 25.1516 83.8194 25.0808 83.6742 25.0079C82.9176 24.6241 82.1719 24.2229 81.4307 23.8103C81.2843 23.7291 81.1379 23.6479 80.987 23.5642C80.7076 23.4079 80.4294 23.2495 80.1525 23.0888C78.522 22.1692 76.8599 22.2191 75.0277 22.1703C72.7948 22.0976 70.5988 21.9476 68.3828 21.6713C68.1155 21.6398 68.1155 21.6398 67.8427 21.6077C62.9617 21.0323 58.1545 20.1501 53.3706 19.0348C53.2177 18.9998 53.0648 18.9648 52.9073 18.9288C47.5248 17.6889 47.5248 17.6889 45.7597 16.4274C45.53 15.7892 45.5047 15.1692 45.557 14.4954C46.0466 13.6436 46.6601 13.1827 47.52 12.7267C48.1541 12.5851 48.7882 12.5292 49.435 12.4769C49.6131 12.4603 49.7912 12.4438 49.9746 12.4267C51.48 12.293 52.9848 12.2183 54.4957 12.1899C54.5277 12.0126 54.5597 11.8352 54.5927 11.6525C55.2998 8.86106 57.8957 6.89273 60.2465 5.47767C62.0766 4.41659 63.7747 3.75453 65.8754 3.58827C66.2127 3.5582 66.55 3.52788 66.8872 3.49735C67.4165 3.45027 67.9457 3.40465 68.4754 3.3631C68.9884 3.32227 69.5005 3.27533 70.0128 3.22732C70.1712 3.21635 70.3296 3.20538 70.4928 3.19408C70.9964 3.1544 70.9964 3.1544 71.6934 2.96244C72.1141 2.47016 72.1141 2.47016 72.3649 1.9153C73.17 1.24735 74.0023 1.23656 75.0292 1.24502Z" fill="#5787A9"/>
<path d="M75.011 6.86843C77.0888 8.3197 77.9725 10.7926 78.4702 13.1765C78.6548 14.4641 78.5889 15.6951 78.453 16.982C78.4369 17.1366 78.4209 17.2912 78.4044 17.4504C78.3076 18.2251 78.2081 18.7095 77.6814 19.2849C77.5051 19.2155 77.3289 19.1461 77.1473 19.0747C70.7191 16.5824 63.9962 14.8854 57.3159 13.2181C58.2997 10.4871 60.7246 8.56634 63.2237 7.27528C66.5552 5.74352 71.6473 4.99878 75.011 6.86843Z" fill="#95BAD5"/>
<path d="M79.2313 8.96508C81.3997 10.6687 82.8743 12.5588 83.978 15.1083C84.0356 15.2349 84.0932 15.3616 84.1526 15.4921C84.9876 17.5935 85.0538 20.2405 84.7485 22.4501C83.2053 21.8315 81.7133 21.1441 80.2344 20.3845C80.2649 20.1597 80.2955 19.9349 80.3269 19.7033C80.3668 19.4021 80.4067 19.1008 80.4465 18.7996C80.4667 18.6522 80.4868 18.5048 80.5076 18.3529C80.9323 15.1084 80.5235 11.9696 79.2313 8.96508Z" fill="#96BBD6"/>
<path d="M78.5529 111.543C78.7489 111.61 78.9449 111.677 79.1469 111.745C80.0128 112.017 80.879 112.17 81.7801 112.321C81.9409 112.348 82.1018 112.376 82.2676 112.404C82.6502 112.47 83.033 112.534 83.4159 112.598C83.6603 114.38 83.7252 116.163 83.7812 117.956C83.7915 118.265 83.8018 118.574 83.8122 118.883C83.8391 119.689 83.8651 120.495 83.8908 121.302C83.9173 122.127 83.9448 122.953 83.9722 123.778C84.0256 125.393 84.078 127.007 84.1297 128.622C84.4038 128.677 84.6779 128.733 84.9602 128.79C85.3254 128.864 85.6905 128.939 86.0556 129.014C86.2356 129.05 86.4155 129.087 86.601 129.124C89.3969 129.699 91.8987 130.541 93.5675 132.724C94.267 133.852 94.557 134.723 94.3613 136.002C94.0441 136.704 93.7785 136.98 93.0641 137.392C91.9269 137.791 90.8997 137.806 89.6861 137.829C89.4369 137.836 89.1877 137.843 88.9309 137.85C88.1237 137.87 87.3166 137.886 86.5092 137.899C86.2412 137.904 85.9732 137.909 85.6971 137.914C84.0543 137.942 82.4119 137.956 80.7688 137.962C80.2059 137.964 79.643 137.968 79.0802 137.974C78.2519 137.983 77.4238 137.987 76.5955 137.989C76.3449 137.993 76.0944 137.996 75.8362 138C74.3941 137.996 73.5689 137.907 72.4705 137.056C71.1311 135.773 71.2175 134.548 71.1479 132.874C71.1378 132.635 71.1278 132.397 71.1174 132.152C70.9918 128.791 71.0163 125.429 71.0265 122.067C71.029 121.162 71.03 120.257 71.0312 119.352C71.0338 117.593 71.0378 115.833 71.0429 114.073C71.1698 114.028 71.2968 113.982 71.4277 113.935C72.014 113.724 72.5992 113.51 73.1843 113.296C73.384 113.224 73.5837 113.153 73.7894 113.079C74.9644 112.647 75.9988 112.176 77.0286 111.511C77.6216 111.27 77.9415 111.373 78.5529 111.543Z" fill="#719CBA"/>
<path d="M45.6165 111.445C45.82 111.546 46.0235 111.647 46.2332 111.751C46.5651 111.886 46.8981 112.018 47.2317 112.149C47.7924 112.376 48.3527 112.603 48.9131 112.83C49.1856 112.94 49.1856 112.94 49.4637 113.053C49.709 113.152 49.709 113.152 49.9593 113.254C50.5142 113.472 51.0749 113.674 51.637 113.877C51.6529 117.987 51.6521 122.096 51.637 126.206C51.6363 126.449 51.6357 126.692 51.635 126.942C51.6311 128.217 51.6215 129.492 51.6009 130.767C51.5956 131.143 51.5923 131.518 51.5911 131.894C51.5765 135.415 51.5765 135.415 50.2273 136.836C49.1491 137.725 48.0215 137.742 46.6205 137.801C46.4161 137.81 46.2116 137.819 46.001 137.828C43.2969 137.934 40.5914 137.953 37.885 137.961C37.2772 137.964 36.6694 137.968 36.0617 137.974C35.1723 137.983 34.2831 137.987 33.3938 137.989C33.1228 137.993 32.8519 137.996 32.5728 138C31.099 137.997 30.1986 137.951 29.0821 137.048C28.4158 136.417 28.2659 135.963 28.2451 135.095C28.3008 133.739 28.744 132.912 29.787 131.946C32.3593 129.966 35.191 129.102 38.48 128.545C38.779 124.799 39.0094 121.06 39.1045 117.306C39.147 115.729 39.2313 114.169 39.4198 112.601C39.8236 112.543 39.8236 112.543 40.2357 112.484C40.5951 112.43 40.9546 112.376 41.314 112.322C41.5791 112.284 41.5791 112.284 41.8495 112.246C42.7324 112.111 43.4879 111.954 44.294 111.595C45.0585 111.326 45.0585 111.326 45.6165 111.445Z" fill="#709AB9"/>
<path d="M80.6133 78.2808C80.9892 78.3396 81.1967 78.3916 81.47 78.6633C82.2364 79.808 82.7296 81.0601 83.2363 82.3345C83.3902 82.7209 83.547 83.1061 83.7041 83.4912C84.29 84.9405 84.7967 86.3791 85.1843 87.8956C85.2148 88.0093 85.2454 88.123 85.2769 88.2401C85.6063 89.6886 85.4384 91.398 84.6474 92.6636C83.8553 93.6799 82.8865 94.1026 81.628 94.2793C80.416 94.103 79.2778 93.4836 78.4066 92.6242C77.1924 90.8696 77.4058 88.0928 77.7096 86.0731C77.845 85.354 78.0384 84.6555 78.249 83.9551C78.2997 83.7857 78.3505 83.6163 78.4028 83.4418C78.5767 82.8725 78.7562 82.3053 78.9386 81.7386C78.9957 81.5585 79.0529 81.3784 79.1118 81.1929C79.4763 80.1031 79.9173 79.1971 80.6133 78.2808Z" fill="#FDFAEF"/>
<path d="M64.9986 81.1228C65.2024 81.2995 65.4029 81.4801 65.5995 81.6647C65.7102 81.7614 65.821 81.8581 65.9351 81.9577C67.0201 82.9568 67.6772 83.9989 67.7471 85.4968C67.7198 86.1594 67.6825 86.3477 67.2742 86.8957C66.6653 87.3161 66.345 87.4107 65.5995 87.339C64.8923 86.9393 64.3803 86.4498 63.8262 85.8603C62.7883 84.7564 61.8427 83.9284 60.398 83.3985C60.2316 83.3363 60.0652 83.2741 59.8938 83.2101C57.7916 82.4706 54.9698 82.0924 52.8753 83.0438C52.7571 83.1089 52.6388 83.1739 52.517 83.2409C52.3955 83.3059 52.274 83.3709 52.1488 83.4379C51.1446 84.0411 50.4279 84.8738 49.6798 85.7628C49.4802 85.9998 49.28 86.2363 49.0789 86.4721C48.9966 86.5712 48.9143 86.6704 48.8295 86.7726C48.4152 87.1838 48.0585 87.3246 47.483 87.3981C46.8841 87.3248 46.6399 87.124 46.2122 86.7085C45.9097 86.1035 45.9692 85.4302 46.1512 84.7949C47.34 81.8831 49.7934 80.2749 52.517 78.9851C52.7124 78.8925 52.7124 78.8925 52.9117 78.7979C56.8084 77.5295 61.7869 78.7044 64.9986 81.1228Z" fill="#54474F"/>
<path d="M46.7998 40.5557C47.3577 40.9029 47.6563 41.2141 47.9031 41.8167C48.0525 42.7285 48.0129 43.5008 47.5091 44.2893C47.3312 44.5207 47.1472 44.7474 46.9574 44.9691C46.8696 45.076 46.7818 45.1828 46.6914 45.2929C43.8543 48.4358 39.1811 48.629 35.2541 48.8505C35.0482 48.8602 34.8424 48.87 34.6304 48.88C33.8336 48.9194 33.04 48.9861 32.2451 49.0537C31.8258 49.0672 31.8258 49.0672 31.5106 48.9096C31.4613 48.555 31.4613 48.555 31.5106 48.1215C32.2719 47.3601 33.1608 46.9832 34.2191 46.8618C34.4951 46.8276 34.4951 46.8276 34.7767 46.7927C34.97 46.7695 35.1633 46.7464 35.3624 46.7226C37.0016 46.5052 38.4975 46.2633 40.0221 45.5996C40.1268 45.554 40.2315 45.5085 40.3393 45.4616C42.327 44.5794 43.8001 43.7003 44.6744 41.6172C45.1736 40.6976 45.7732 40.4091 46.7998 40.5557Z" fill="#5787A9"/>
<path d="M67.2901 41.224C68.2603 41.8169 68.6911 42.6313 69.1513 43.6441C69.8866 45.1787 71.2698 45.8871 72.7379 46.6225C72.8958 46.7038 73.0538 46.7851 73.2166 46.8688C74.7654 47.6601 75.9797 48.1859 77.7522 48.1692C77.9484 48.1678 78.1447 48.1663 78.3469 48.1649C78.5694 48.1621 78.5694 48.1621 78.7964 48.1593C79.4908 48.4214 79.0873 48.8249 79.1116 48.7898C78.4482 48.9528 77.8329 48.9582 77.1512 48.9474C76.3212 48.9357 75.5246 48.9708 74.6983 49.0656C72.0311 49.265 69.2834 47.9218 67.2685 46.2396C66.2831 45.2768 65.5211 44.2965 65.4873 42.879C65.5001 42.2486 65.5308 42.0503 65.8912 41.5097C66.4418 41.1626 66.6525 41.0837 67.2901 41.224Z" fill="#5787A9"/>
<path d="M48.4976 51.7582C51.1131 53.8619 52.8736 56.7402 53.69 59.9874C53.7586 60.3829 53.7586 60.3829 53.9566 60.5545C54.2828 60.513 54.6077 60.4618 54.9319 60.4067C56.3312 60.195 57.7672 60.0731 59.1581 60.3969C59.1646 60.2148 59.1711 60.0328 59.1778 59.8452C59.5374 56.6786 61.6998 53.839 64.0234 51.8035C66.8979 49.5275 69.9341 48.5043 73.5902 48.5064C73.7583 48.5063 73.7583 48.5063 73.9297 48.5062C75.6813 48.5119 77.2463 48.6443 78.8607 49.3634C78.966 49.4082 79.0714 49.453 79.1799 49.4991C83.1518 51.2161 85.8458 54.3054 87.5286 58.2407C88.8482 61.8185 88.5983 65.9434 87.0673 69.3983C85.3533 73.0764 82.447 75.8144 78.6528 77.2782C74.8864 78.6326 70.577 78.3816 66.9726 76.6946C63.4984 74.9086 60.7315 71.8317 59.4734 68.1203C59.0385 66.6479 58.8254 65.2484 58.6852 63.7069C57.1248 63.7069 55.5644 63.7069 53.9566 63.7069C53.9566 64.123 53.9566 64.5392 53.9566 64.9679C53.9113 65.339 53.9113 65.339 53.8464 65.6396C53.8221 65.7531 53.7977 65.8665 53.7726 65.9835C53.732 66.1586 53.732 66.1586 53.6906 66.3372C53.6624 66.4608 53.6341 66.5843 53.605 66.7116C52.7193 70.427 50.5054 73.8634 47.2381 75.9225C43.5886 78.0029 39.1242 78.82 34.9966 77.7318C33.7859 77.3644 32.6704 76.7824 31.5745 76.1589C31.4172 76.0712 31.26 75.9834 31.0979 75.893C27.7484 73.8967 25.727 70.6651 24.6306 66.9837C23.6832 63.1866 24.3859 59.1529 26.2745 55.7766C28.3961 52.3087 31.722 49.7449 35.6885 48.7457C40.2251 47.811 44.8792 48.9175 48.4976 51.7582Z" fill="#54474F"/>
<path d="M46.0058 53.8996C48.4479 55.7626 50.1835 58.2759 50.6464 61.3429C50.8045 63.6495 50.8045 65.8272 49.8583 67.963C49.78 68.1416 49.7018 68.3202 49.6212 68.5042C48.9635 69.8497 48.0731 70.8607 47.0211 71.9035C46.9211 72.0087 46.8212 72.114 46.7182 72.2224C44.7498 74.1472 41.7476 74.9372 39.0613 74.9771C35.715 74.9273 32.8103 73.6578 30.4709 71.273C28.4909 69.0518 27.3047 66.0649 27.4367 63.062C27.4497 62.9108 27.4627 62.7596 27.4761 62.6039C27.4891 62.4332 27.5022 62.2625 27.5155 62.0867C27.8297 59.1811 29.0926 56.9586 31.1014 54.8805C31.1965 54.7813 31.2916 54.6822 31.3896 54.58C35.3284 50.8124 41.6913 50.9026 46.0058 53.8996Z" fill="#FDFBF2"/>
<path d="M80.752 54.0921C82.9584 56.0359 84.7485 58.6287 85.0527 61.6284C85.0708 62.0761 85.0734 62.5201 85.0668 62.9682C85.0653 63.1263 85.0639 63.2844 85.0623 63.4474C84.9975 66.6524 83.8434 69.3987 81.6386 71.7259C79.3635 73.8825 76.299 74.9679 73.1923 74.9208C70.0429 74.7711 67.1958 73.5691 64.9899 71.2728C62.6018 68.5072 61.8034 65.3903 61.9951 61.8156C62.2949 58.7872 63.851 56.2417 66.1333 54.2756C70.3706 50.9364 76.4171 50.7991 80.752 54.0921Z" fill="#FDFAF2"/>
<path d="M67.7878 59.7775C68.7703 60.2719 69.2057 61.2354 69.7211 62.1566C70.4643 63.4021 71.4586 64.0584 72.8316 64.5062C73.9818 64.7273 75.246 64.3282 76.2137 63.7057C76.8737 63.2171 77.2461 62.5943 77.6588 61.8956C78.7173 60.1248 78.7173 60.1248 79.6537 59.817C80.3058 59.7435 80.6066 59.7135 81.1855 60.0632C81.725 60.6533 81.7028 61.0872 81.6917 61.8611C81.5497 63.733 80.4786 65.442 79.1365 66.7129C78.6834 67.0662 78.2141 67.3696 77.7179 67.6586C77.5591 67.7512 77.5591 67.7512 77.3971 67.8458C75.5136 68.8643 72.985 68.93 70.95 68.358C68.6716 67.5319 66.9842 66.209 65.8963 64.0333C65.4874 63.1167 65.2552 62.2003 65.4235 61.1961C65.8615 60.0689 66.5615 59.5327 67.7878 59.7775Z" fill="#54474F"/>
<path d="M33.0866 59.7775C34.0691 60.2719 34.5046 61.2354 35.0199 62.1566C35.7632 63.4021 36.7575 64.0584 38.1305 64.5062C39.2806 64.7273 40.5448 64.3282 41.5125 63.7057C42.1726 63.2171 42.545 62.5943 42.9576 61.8956C44.0161 60.1248 44.0161 60.1248 44.9525 59.817C45.6047 59.7435 45.9055 59.7135 46.4844 60.0632C47.0239 60.6533 47.0016 61.0872 46.9905 61.8611C46.8485 63.733 45.7774 65.442 44.4353 66.7129C43.9822 67.0662 43.5129 67.3696 43.0167 67.6586C42.8579 67.7512 42.8579 67.7512 42.6959 67.8458C40.8124 68.8643 38.2838 68.93 36.2489 68.358C33.9704 67.5319 32.283 66.209 31.1952 64.0333C30.7862 63.1167 30.554 62.2003 30.7223 61.1961C31.1603 60.0689 31.8603 59.5327 33.0866 59.7775Z" fill="#54474F"/>
<path d="M47.7805 49.9552C44.8377 47.4929 41.1672 46.6927 37.4201 46.82C29.9565 47.0999 22.7246 50.6243 16.8573 55.0674C16.5617 55.2927 16.2654 55.5166 15.9663 55.7373C14.9231 56.5026 13.8847 57.2601 12.9266 58.1317C12.5421 58.4897 9.68739 61 9.28122 61.3334C8.17406 62.221 14.1708 84.8188 13.6913 86.2024C13.7867 86.6626 13.8792 86.8718 14.2368 87.1832C15.3712 87.3069 15.8917 86.945 16.7705 86.2719C17.8278 85.4577 18.9053 84.6812 20.0097 83.9323L20.0269 83.9206C20.7965 83.3988 21.5656 82.8773 22.3215 82.3358C24.8794 80.4949 27.4309 78.5037 30.2156 77.0167C30.4619 76.8917 30.7062 76.7621 30.9446 76.6226L31.1022 76.3074C31.4175 76.3074 31.4175 76.3074 31.7167 76.1504C33.5228 75.0992 35.4441 74.1231 37.4811 73.6276C40.7383 72.8676 42.9558 71.0197 44.7463 68.1998C45.1298 67.5722 45.5354 66.9694 45.958 66.3674C46.8069 65.184 47.0787 63.9792 47.0635 62.5402L47.0515 62.1018C47.0454 61.6759 47.0394 61.25 47.0294 60.8241L47.0219 60.5453C47.3371 60.5453 47.3371 60.5453 47.6161 60.3606L47.9381 60.1119L48.2786 59.8489L48.5981 59.5996C49.0104 59.2904 49.3592 58.9994 49.7015 58.6145L50.0167 58.181C50.6475 57.4197 50.8572 56.8572 50.8639 55.8561C50.7958 53.6459 49.3664 51.4468 47.7805 49.9552Z" fill="#95BAD5"/>
<path d="M37.4203 46.82C41.1674 46.6927 44.8379 47.4929 47.7807 49.9552C49.3666 51.4468 50.796 53.6459 50.8641 55.8561C50.8574 56.8572 50.6477 57.4197 50.0169 58.181C49.9129 58.324 49.8089 58.4671 49.7017 58.6145C49.3595 58.9994 49.0106 59.2904 48.5983 59.5996C48.4929 59.6819 48.3874 59.7642 48.2788 59.8489C48.1664 59.9357 48.0541 60.0225 47.9383 60.1119C47.832 60.1939 47.7258 60.276 47.6163 60.3606C47.3374 60.5453 47.3374 60.5453 47.0221 60.5453C47.0258 60.6833 47.0258 60.6833 47.0296 60.8241C47.0396 61.25 47.0456 61.6759 47.0517 62.1018C47.0556 62.2465 47.0596 62.3911 47.0637 62.5402C47.0789 63.9792 46.8072 65.184 45.9582 66.3674C45.5356 66.9694 45.13 67.5722 44.7465 68.1998C42.956 71.0197 40.7385 72.8676 37.4813 73.6276C35.4443 74.1231 33.523 75.0992 31.7169 76.1504C31.4177 76.3074 31.4177 76.3074 31.1024 76.3074C31.0504 76.4114 30.9984 76.5154 30.9448 76.6226C30.7064 76.7621 30.4622 76.8917 30.2158 77.0167C27.4311 78.5037 24.8796 80.4949 22.3217 82.3358C21.5601 82.8814 20.7853 83.4065 20.0099 83.9323C18.9055 84.6812 17.828 85.4577 16.7707 86.2719C15.8919 86.9449 15.3714 87.3069 14.237 87.1832C13.8795 86.8718 13.787 86.6626 13.6915 86.2024C13.8062 85.5116 14.2633 85.1692 14.7591 84.7007C14.86 84.6029 14.9609 84.5051 15.0649 84.4043C15.906 83.598 16.7891 82.8594 17.7047 82.1393C17.8587 82.0087 18.0127 81.878 18.1714 81.7434C22.434 78.1511 27.4632 75.4392 32.3634 72.8397C32.5313 72.7504 32.6991 72.6611 32.8721 72.569C34.6756 71.6115 36.467 70.672 38.3665 69.9182C38.8583 69.671 39.0595 69.5494 39.2987 69.0568C39.3498 68.6395 39.3738 68.2713 39.3677 67.855C39.3665 67.7428 39.3653 67.6307 39.3641 67.5152C39.3314 66.4649 39.142 65.5362 38.4601 64.705C37.246 63.5771 35.7387 63.6214 34.1859 63.5992C33.7855 63.5912 33.385 63.5826 32.9846 63.5734C32.8086 63.5706 32.6326 63.5678 32.4512 63.565C32.0482 63.5401 32.0482 63.5401 31.8905 63.3825C31.8841 63.0673 31.8838 62.7519 31.8905 62.4368C32.8895 61.9009 33.7941 61.8784 34.9149 61.8851C35.1794 61.8866 35.1794 61.8866 35.4494 61.8882C37.6999 61.9381 39.1236 62.7492 40.7228 64.3301C41.4685 65.1359 42.0953 65.9672 42.1753 67.0866C42.1623 67.2166 42.1493 67.3466 42.1359 67.4806C43.3157 67.2447 44.0091 66.397 44.6572 65.4396C45.4994 64.044 45.9507 62.8193 45.7612 61.1758C45.6065 60.6664 45.3919 60.2199 45.1307 59.7572C45.0396 59.5914 44.9486 59.4256 44.8548 59.2548C43.8321 57.9764 42.3938 57.4263 40.8749 56.92C40.278 56.8829 39.68 56.8901 39.082 56.8905C38.9106 56.8904 38.7392 56.8903 38.5626 56.8902C37.5025 56.8971 36.512 56.9676 35.4703 57.1645C34.8072 57.2743 34.1365 57.2968 33.4667 57.2353C33.3091 57.0777 33.3091 57.0777 33.2599 56.6245C33.3091 56.1319 33.3091 56.1319 33.5702 55.8857C33.9891 55.6287 34.3886 55.4765 34.8558 55.3241C35.0128 55.2717 35.1699 55.2193 35.3317 55.1653C38.0637 54.4174 41.3107 54.6553 43.8008 56.0236C44.6941 56.5892 45.4106 57.2324 46.037 58.0825C46.2336 58.3874 46.2336 58.3874 46.7069 58.4962C46.7487 58.406 46.7906 58.3158 46.8337 58.2229C47.0221 57.8658 47.0221 57.8658 47.2598 57.5481C48.1263 56.3508 48.1375 55.1801 47.9678 53.7676C47.8396 53.2634 47.6519 52.9182 47.3374 52.5067C47.2565 52.3908 47.1756 52.275 47.0923 52.1557C45.838 50.5461 43.922 49.8885 41.9783 49.5119C41.8637 49.4828 41.7491 49.4538 41.631 49.4238C33.0933 48.0764 23.8949 52.7252 17.2152 57.5708C17.0103 57.7213 16.8057 57.8722 16.6013 58.0234C16.5086 58.092 16.4158 58.1607 16.3202 58.2314C15.1782 59.0822 14.0834 59.9842 13.0013 60.9092C12.5144 61.3251 12.0225 61.7344 11.5279 62.1412C11.3198 62.3125 11.3198 62.3125 11.1074 62.4872C10.5489 62.9247 10.2108 62.9249 9.50841 62.9096C9.4564 62.7536 9.40438 62.5975 9.35079 62.4368C9.19475 62.3847 9.0387 62.3327 8.87793 62.2791C9.3574 60.8956 10.6443 60.0574 11.7514 59.1698C12.1576 58.8364 12.5423 58.4897 12.9268 58.1317C13.8849 57.2601 14.9233 56.5026 15.9665 55.7373C16.2656 55.5166 16.5619 55.2927 16.8575 55.0674C22.7248 50.6243 29.9567 47.0999 37.4203 46.82Z" fill="#5787A9"/>
</svg>
