<svg width="40" height="40" viewBox="0 0 40 40" fill="none" xmlns="http://www.w3.org/2000/svg">
<circle cx="20" cy="20" r="19.5" transform="matrix(-1 0 0 1 40 0)" fill="#EFEFF3" stroke="url(#paint0_linear_714_10642)"/>
<path d="M13 29C12.45 29 11.9793 28.8043 11.588 28.413C11.1967 28.0217 11.0007 27.5507 11 27V13C11 12.45 11.196 11.9793 11.588 11.588C11.98 11.1967 12.4507 11.0007 13 11H27C27.55 11 28.021 11.196 28.413 11.588C28.805 11.98 29.0007 12.4507 29 13V27C29 27.55 28.8043 28.021 28.413 28.413C28.0217 28.805 27.5507 29.0007 27 29H13ZM14 25H26L22.25 20L19.25 24L17 21L14 25Z" fill="url(#paint1_linear_714_10642)"/>
<defs>
<linearGradient id="paint0_linear_714_10642" x1="0" y1="20" x2="40" y2="20" gradientUnits="userSpaceOnUse">
<stop stop-color="#6088F8"/>
<stop offset="1" stop-color="#6088F8" stop-opacity="0.5"/>
</linearGradient>
<linearGradient id="paint1_linear_714_10642" x1="11" y1="20" x2="29" y2="20" gradientUnits="userSpaceOnUse">
<stop stop-color="#6088F8"/>
<stop offset="1" stop-color="#6088F8" stop-opacity="0.5"/>
</linearGradient>
</defs>
</svg>
