<svg width="14" height="16" viewBox="0 0 14 16" fill="none" xmlns="http://www.w3.org/2000/svg">
<path fill-rule="evenodd" clip-rule="evenodd" d="M7.00005 0C6.50666 0 6.07776 0.320304 5.2207 0.961674L3.93025 1.92715C3.79528 2.02834 3.7278 2.07855 3.65506 2.12116C3.58233 2.16377 3.5051 2.19724 3.35138 2.26572L1.88247 2.91698C0.906189 3.35064 0.41805 3.56671 0.171357 3.99962C-0.0753371 4.43253 -0.0161005 4.97042 0.103122 6.0447L0.281582 7.66144C0.300327 7.83034 0.309325 7.91479 0.309325 8C0.309325 8.08521 0.300327 8.16966 0.281582 8.33856L0.103122 9.9553C-0.0153506 11.0296 -0.0745872 11.5667 0.171357 12.0004C0.4188 12.434 0.906189 12.6501 1.88247 13.083L3.35213 13.7343C3.5051 13.8028 3.58233 13.8362 3.65506 13.8788C3.72705 13.9214 3.79528 13.9717 3.93025 14.0728L5.21995 15.0383C6.07851 15.6797 6.50741 16 7.00005 16C7.49269 16 7.92234 15.6797 8.77939 15.0383L10.0698 14.0728C10.2048 13.9717 10.2723 13.9214 10.345 13.8788C10.4178 13.8362 10.495 13.8028 10.6487 13.7343L12.1176 13.083C13.0939 12.6494 13.582 12.4333 13.8287 12.0004C14.0754 11.5675 14.0162 11.0296 13.8962 9.9553L13.7185 8.33856C13.6998 8.16966 13.69 8.08521 13.69 8C13.69 7.91479 13.6998 7.83034 13.7185 7.66144L13.897 6.0447C14.0154 4.97042 14.0747 4.43329 13.8287 3.99962C13.5813 3.56595 13.0939 3.34988 12.1176 2.91698L10.648 2.26572C10.5444 2.22329 10.4433 2.17503 10.345 2.12116C10.2498 2.06174 10.1579 1.99697 10.0698 1.92715L8.78014 0.961674C7.92084 0.320304 7.49194 0 7.00005 0ZM7.00005 11.0433C7.79552 11.0433 8.5584 10.7226 9.12088 10.1519C9.68336 9.58119 9.99936 8.80713 9.99936 8C9.99936 7.19287 9.68336 6.41881 9.12088 5.84808C8.5584 5.27736 7.79552 4.95673 7.00005 4.95673C6.20458 4.95673 5.44169 5.27736 4.87921 5.84808C4.31673 6.41881 4.00073 7.19287 4.00073 8C4.00073 8.80713 4.31673 9.58119 4.87921 10.1519C5.44169 10.7226 6.20458 11.0433 7.00005 11.0433Z" fill="#7D7E81"/>
</svg>
