<svg width="48" height="48" viewBox="0 0 48 48" fill="none" xmlns="http://www.w3.org/2000/svg">
<path d="M22.531 15.4685C22.231 15.1685 21.8241 15 21.3998 15C20.9755 15 20.5686 15.1685 20.2686 15.4685L13.0685 22.6686C12.7685 22.9686 12.6 23.3755 12.6 23.7998C12.6 24.2241 12.7685 24.631 13.0685 24.931L20.2686 32.1311C20.5703 32.4226 20.9745 32.5839 21.394 32.5802C21.8136 32.5766 22.2149 32.4083 22.5115 32.1116C22.8082 31.815 22.9764 31.4137 22.9801 30.9941C22.9837 30.5746 22.8225 30.1705 22.531 29.8687L18.1997 25.3998H33.4C33.8243 25.3998 34.2313 25.2312 34.5314 24.9312C34.8314 24.6311 35 24.2241 35 23.7998C35 23.3754 34.8314 22.9685 34.5314 22.6684C34.2313 22.3683 33.8243 22.1998 33.4 22.1998H18.1997L22.531 17.7309C22.831 17.4309 22.9995 17.024 22.9995 16.5997C22.9995 16.1754 22.831 15.7685 22.531 15.4685Z" fill="url(#paint0_linear_1382_7189)"/>
<defs>
<linearGradient id="paint0_linear_1382_7189" x1="23.8" y1="15" x2="23.8" y2="32.5803" gradientUnits="userSpaceOnUse">
<stop stop-color="#2A5FF7" stop-opacity="0.4"/>
<stop offset="1" stop-color="#2A5FF7"/>
</linearGradient>
</defs>
</svg>
