<svg width="120" height="121" viewBox="0 0 120 121" fill="none" xmlns="http://www.w3.org/2000/svg">
<path d="M18 2.141e-05C3.26733 2.141e-05 0 10.6001 0 18V110.1C0 117.1 3.7 120 10 120C16.3 120 28 118.762 28 102C28.0592 71.8041 28 25.0168 28 23.4C28 21.7832 28 18 30.1 18H34.8C37 18 37 20.3 37 23.4L37 102C37 120.7 53.7001 119.985 55 120C63.6 120.1 65 115.6 65 110V63C65 61.4 65.4 60 66.8 60H72.3C74.1 60 74.1 62.2867 74.1 63C74.1 77.2261 74 103.533 74 110C74 114.2 74 120 83 120C85.8911 120 90.9743 120.1 102 120.1C113.026 120.1 120 111.8 120 102V18.0001C120 0.000112915 104.1 0 101 0C96.4 0 92 0 92 8.00004V98C92 100.2 91.4 102 90 102H85.1C83 102 83 99.3 83 98C83.1188 71.3309 83 30.1014 83 17.9C83 2.64821 68.2 0 63 0C54.9 0 54.9 7.13583 54.9 8.00004C54.9 24.7623 55 51.9657 55 54.7C55 56.9587 55 60 52.8 60H48.1C45.7 60 45.9919 55.9284 46 54.7C46 40.1568 46.1 13.421 46.1 8.00004C46.1 2.57905 40.401 1.15953e-05 38.5 2.141e-05H18Z" fill="white"/>
<path d="M18 2.141e-05C3.26733 2.141e-05 0 10.6001 0 18V110.1C0 117.1 3.7 120 10 120C16.3 120 28 118.762 28 102C28.0592 71.8041 28 25.0168 28 23.4C28 21.7832 28 18 30.1 18H34.8C37 18 37 20.3 37 23.4L37 102C37 120.7 53.7001 119.985 55 120C63.6 120.1 65 115.6 65 110V63C65 61.4 65.4 60 66.8 60H72.3C74.1 60 74.1 62.2867 74.1 63C74.1 77.2261 74 103.533 74 110C74 114.2 74 120 83 120C85.8911 120 90.9743 120.1 102 120.1C113.026 120.1 120 111.8 120 102V18.0001C120 0.000112915 104.1 0 101 0C96.4 0 92 0 92 8.00004V98C92 100.2 91.4 102 90 102H85.1C83 102 83 99.3 83 98C83.1188 71.3309 83 30.1014 83 17.9C83 2.64821 68.2 0 63 0C54.9 0 54.9 7.13583 54.9 8.00004C54.9 24.7623 55 51.9657 55 54.7C55 56.9587 55 60 52.8 60H48.1C45.7 60 45.9919 55.9284 46 54.7C46 40.1568 46.1 13.421 46.1 8.00004C46.1 2.57905 40.401 1.15953e-05 38.5 2.141e-05H18Z" fill="url(#paint0_linear_1872_12683)"/>
<defs>
<linearGradient id="paint0_linear_1872_12683" x1="104.615" y1="120.1" x2="-1.69679" y2="77.3409" gradientUnits="userSpaceOnUse">
<stop stop-color="#6088F8" stop-opacity="0.4"/>
<stop offset="1" stop-color="#6088F8" stop-opacity="0.1"/>
</linearGradient>
</defs>
</svg>
