<svg width="16" height="16" viewBox="0 0 16 16" fill="none" xmlns="http://www.w3.org/2000/svg">
<path opacity="0.5" d="M8.55467 14.6262C10.6387 14.2089 13.3333 12.7095 13.3333 8.83286C13.3333 5.30553 10.7513 2.9562 8.89467 1.87687C8.482 1.63686 8 1.9522 8 2.42887V3.64753C8 4.60887 7.596 6.36353 6.47333 7.09353C5.9 7.4662 5.28 6.9082 5.21067 6.2282L5.15333 5.66953C5.08667 5.0202 4.42533 4.6262 3.90667 5.0222C2.974 5.7322 2 6.97886 2 8.8322C2 13.5729 5.526 14.7589 7.28867 14.7589C7.39178 14.7589 7.49933 14.7555 7.61133 14.7489C7.90867 14.7115 7.61133 14.8149 8.55467 14.6255" fill="black"/>
<path d="M5.33301 12.296C5.33301 14.0426 6.74034 14.5826 7.61101 14.6573C7.90834 14.62 7.61101 14.7233 8.55434 14.534C9.24701 14.2893 9.99967 13.6613 9.99967 12.296C9.99967 11.4313 9.45367 10.8973 9.02634 10.6473C8.89567 10.5706 8.74367 10.6673 8.73234 10.818C8.69501 11.2966 8.23501 11.678 7.92234 11.314C7.64567 10.9926 7.52901 10.5226 7.52901 10.222V9.82862C7.52901 9.59262 7.29101 9.43529 7.08701 9.55662C6.32967 10.0053 5.33301 10.9293 5.33301 12.296Z" fill="black"/>
</svg>
