<svg width="48" height="48" viewBox="0 0 48 48" fill="none" xmlns="http://www.w3.org/2000/svg">
<path opacity="0.5" d="M21 17C20.9484 17.578 20.9484 18.304 20.9484 19.222V29.778C20.9484 30.696 20.9484 31.422 21 32H19.957C17.6203 32 16.4514 32 15.7257 31.268C15 30.535 15 29.357 15 27V22C15 19.643 15 18.464 15.7257 17.732C16.4514 17 17.6203 17 19.957 17H21Z" fill="url(#paint0_linear_1382_7193)"/>
<mask id="path-2-inside-1_1382_7193" fill="white">
<path fill-rule="evenodd" clip-rule="evenodd" d="M21.707 14.408C21 15.035 21 16.1821 21 18.4752V29.5238C21 31.8169 21 32.964 21.707 33.591C22.414 34.218 23.495 34.03 25.657 33.653L27.987 33.247C30.381 32.829 31.578 32.62 32.289 31.7419C33 30.8629 33 29.5928 33 27.0517V20.9473C33 18.4072 33 17.1371 32.29 16.2581C31.578 15.38 30.38 15.171 27.986 14.754L25.658 14.347C23.496 13.97 22.415 13.782 21.708 14.409M24.751 22.9544C24.751 22.5204 24.415 22.1694 24.001 22.1694C23.587 22.1694 23.251 22.5204 23.251 22.9534V25.0476C23.251 25.4806 23.587 25.8316 24.001 25.8316C24.415 25.8316 24.751 25.4806 24.751 25.0476V22.9544Z"/>
</mask>
<path fill-rule="evenodd" clip-rule="evenodd" d="M21.707 14.408C21 15.035 21 16.1821 21 18.4752V29.5238C21 31.8169 21 32.964 21.707 33.591C22.414 34.218 23.495 34.03 25.657 33.653L27.987 33.247C30.381 32.829 31.578 32.62 32.289 31.7419C33 30.8629 33 29.5928 33 27.0517V20.9473C33 18.4072 33 17.1371 32.29 16.2581C31.578 15.38 30.38 15.171 27.986 14.754L25.658 14.347C23.496 13.97 22.415 13.782 21.708 14.409M24.751 22.9544C24.751 22.5204 24.415 22.1694 24.001 22.1694C23.587 22.1694 23.251 22.5204 23.251 22.9534V25.0476C23.251 25.4806 23.587 25.8316 24.001 25.8316C24.415 25.8316 24.751 25.4806 24.751 25.0476V22.9544Z" fill="url(#paint1_linear_1382_7193)"/>
<path d="M25.657 33.653L25.5712 33.1604L25.5711 33.1605L25.657 33.653ZM27.987 33.247L28.0728 33.7396L28.073 33.7395L27.987 33.247ZM32.289 31.7419L32.6776 32.0566L32.6778 32.0564L32.289 31.7419ZM32.29 16.2581L32.679 15.9439L32.6784 15.9432L32.29 16.2581ZM27.986 14.754L27.8999 15.2465L27.9002 15.2466L27.986 14.754ZM25.658 14.347L25.7441 13.8545L25.7439 13.8544L25.658 14.347ZM21.707 14.408L21.3752 14.0339C20.8924 14.4621 20.6884 15.0454 20.5929 15.7496C20.4989 16.4429 20.5 17.3433 20.5 18.4752H21H21.5C21.5 17.314 21.5011 16.4943 21.5838 15.884C21.6651 15.2846 21.8146 14.9809 22.0388 14.7821L21.707 14.408ZM21 18.4752H20.5V29.5238H21H21.5V18.4752H21ZM21 29.5238H20.5C20.5 30.6557 20.4989 31.5561 20.5929 32.2494C20.6884 32.9536 20.8924 33.5369 21.3752 33.9651L21.707 33.591L22.0388 33.2169C21.8146 33.0181 21.6651 32.7144 21.5838 32.115C21.5011 31.5047 21.5 30.685 21.5 29.5238H21ZM21.707 33.591L21.3752 33.9651C21.8625 34.3972 22.4576 34.5157 23.1489 34.4984C23.8236 34.4815 24.6776 34.3314 25.7429 34.1456L25.657 33.653L25.5711 33.1605C24.4744 33.3517 23.7069 33.4841 23.1239 33.4987C22.5574 33.5129 22.2585 33.4119 22.0388 33.2169L21.707 33.591ZM25.657 33.653L25.7428 34.1456L28.0728 33.7396L27.987 33.247L27.9012 32.7544L25.5712 33.1604L25.657 33.653ZM27.987 33.247L28.073 33.7395C29.2569 33.5328 30.1924 33.3705 30.9179 33.1443C31.6587 32.9134 32.2376 32.5999 32.6776 32.0566L32.289 31.7419L31.9004 31.4273C31.6294 31.762 31.2543 31.992 30.6203 32.1896C29.9711 32.392 29.1111 32.5431 27.901 32.7544L27.987 33.247ZM32.289 31.7419L32.6778 32.0564C33.1156 31.515 33.3129 30.873 33.4076 30.0793C33.5008 29.2978 33.5 28.31 33.5 27.0517H33H32.5C32.5 28.3345 32.4992 29.2523 32.4146 29.9608C32.3316 30.6573 32.1734 31.0898 31.9002 31.4275L32.289 31.7419ZM33 27.0517H33.5V20.9473H33H32.5V27.0517H33ZM33 20.9473H33.5C33.5 19.6895 33.5008 18.702 33.4077 17.9206C33.3132 17.1272 33.1162 16.4853 32.679 15.9439L32.29 16.2581L31.901 16.5723C32.1738 16.91 32.3318 17.3426 32.4148 18.039C32.4992 18.7474 32.5 19.665 32.5 20.9473H33ZM32.29 16.2581L32.6784 15.9432C32.2379 15.4 31.6585 15.0865 30.9174 14.8558C30.1914 14.6297 29.2557 14.4677 28.0718 14.2614L27.986 14.754L27.9002 15.2466C29.1103 15.4574 29.9706 15.6083 30.6201 15.8106C31.2545 16.0081 31.6301 16.2382 31.9016 16.573L32.29 16.2581ZM27.986 14.754L28.0721 14.2615L25.7441 13.8545L25.658 14.347L25.5719 14.8395L27.8999 15.2465L27.986 14.754ZM25.658 14.347L25.7439 13.8544C24.6786 13.6686 23.8246 13.5185 23.1499 13.5016C22.4586 13.4843 21.8635 13.6028 21.3762 14.0349L21.708 14.409L22.0398 14.7831C22.2595 14.5881 22.5584 14.4871 23.1249 14.5013C23.7079 14.5159 24.4754 14.6483 25.5721 14.8395L25.658 14.347ZM24.751 22.9544H25.251C25.251 22.2658 24.7121 21.6694 24.001 21.6694V22.1694V22.6694C24.1179 22.6694 24.251 22.7751 24.251 22.9544H24.751ZM24.001 22.1694V21.6694C23.2903 21.6694 22.751 22.2653 22.751 22.9534H23.251H23.751C23.751 22.7755 23.8837 22.6694 24.001 22.6694V22.1694ZM23.251 22.9534H22.751V25.0476H23.251H23.751V22.9534H23.251ZM23.251 25.0476H22.751C22.751 25.7357 23.2903 26.3316 24.001 26.3316V25.8316V25.3316C23.8837 25.3316 23.751 25.2255 23.751 25.0476H23.251ZM24.001 25.8316V26.3316C24.7117 26.3316 25.251 25.7357 25.251 25.0476H24.751H24.251C24.251 25.2255 24.1183 25.3316 24.001 25.3316V25.8316ZM24.751 25.0476H25.251V22.9544H24.751H24.251V25.0476H24.751Z" fill="url(#paint2_linear_1382_7193)" mask="url(#path-2-inside-1_1382_7193)"/>
<defs>
<linearGradient id="paint0_linear_1382_7193" x1="18" y1="17" x2="18" y2="32" gradientUnits="userSpaceOnUse">
<stop stop-color="#2A5FF7" stop-opacity="0.4"/>
<stop offset="1" stop-color="#2A5FF7"/>
</linearGradient>
<linearGradient id="paint1_linear_1382_7193" x1="27" y1="14" x2="27" y2="34" gradientUnits="userSpaceOnUse">
<stop stop-color="#2A5FF7" stop-opacity="0.4"/>
<stop offset="1" stop-color="#2A5FF7"/>
</linearGradient>
<linearGradient id="paint2_linear_1382_7193" x1="23" y1="17" x2="35.1967" y2="19.2431" gradientUnits="userSpaceOnUse">
<stop stop-color="white"/>
<stop offset="1" stop-color="white" stop-opacity="0.2"/>
</linearGradient>
</defs>
</svg>
