<svg width="16" height="16" viewBox="0 0 16 16" fill="none" xmlns="http://www.w3.org/2000/svg">
<path fill-rule="evenodd" clip-rule="evenodd" d="M8.52685 1.53154C8.82004 1.91405 9.15044 2.50493 9.63115 3.3667L9.87448 3.80354L9.91839 3.88243C10.1416 4.28429 10.3314 4.62512 10.6357 4.85582C10.9431 5.0895 11.3181 5.17359 11.7542 5.27182L11.839 5.29117L12.3123 5.39833C13.2462 5.60968 13.8824 5.7548 14.317 5.92671C14.7419 6.09341 14.8312 6.23108 14.8654 6.34048C14.9019 6.45657 14.9026 6.63443 14.6496 7.03778C14.3914 7.44708 13.9561 7.9576 13.3206 8.70178L12.9976 9.07909L12.9418 9.14383C12.6419 9.4936 12.3919 9.78532 12.2773 10.1544C12.1634 10.5213 12.2014 10.9061 12.2475 11.3734L12.255 11.4605L12.3041 11.9643C12.4008 12.9556 12.4648 13.6387 12.4432 14.1299C12.4209 14.621 12.3175 14.7565 12.2349 14.819C12.162 14.8748 12.0265 14.9358 11.5853 14.8093C11.1365 14.6813 10.5397 14.4082 9.66538 14.0056L9.22188 13.8017L9.14077 13.7645C8.73521 13.5762 8.38398 13.414 8.00001 13.414C7.61603 13.414 7.2648 13.5762 6.85925 13.7637C6.83295 13.7766 6.80567 13.789 6.77739 13.801L6.33463 14.0056C5.46027 14.4082 4.86347 14.6813 4.41476 14.8093C3.97349 14.9358 3.83806 14.8748 3.76513 14.819C3.68253 14.7565 3.5791 14.6203 3.55677 14.1299C3.53445 13.6387 3.59993 12.9556 3.69593 11.9643L3.74504 11.4605L3.75248 11.3734C3.79862 10.9061 3.83657 10.5213 3.72272 10.1544C3.60812 9.78532 3.35809 9.4936 3.0582 9.14383L3.00239 9.07909L2.67944 8.70178C2.04395 7.9576 1.60863 7.44708 1.35116 7.03778C1.09741 6.63443 1.09815 6.45731 1.13461 6.34048C1.16884 6.23108 1.25814 6.09341 1.68304 5.92671C2.11836 5.7548 2.75385 5.60968 3.68774 5.39833L4.16101 5.29117L4.24584 5.27182C4.68191 5.17359 5.05695 5.0895 5.36428 4.85582C5.66937 4.62512 5.85764 4.28503 6.08162 3.88243L6.12478 3.80354L6.36886 3.3667C6.84957 2.50493 7.17997 1.91405 7.47316 1.53154C7.76635 1.14903 7.91517 1.11628 8.00001 1.11628C8.08484 1.11628 8.23441 1.14903 8.52685 1.53154ZM9.41238 0.852839C9.05891 0.389954 8.62062 0 8.00001 0C7.3794 0 6.94184 0.389954 6.58689 0.852839C6.23864 1.30828 5.8688 1.97135 5.41711 2.78177L5.14997 3.26028C4.85827 3.78419 4.78311 3.89582 4.68935 3.96726C4.60005 4.03498 4.48322 4.07368 3.91545 4.20243L3.39455 4.32001C2.51945 4.51796 1.79838 4.68094 1.27377 4.88782C0.729058 5.10289 0.252067 5.41917 0.068265 6.00931C-0.113304 6.5935 0.0905895 7.1308 0.406103 7.63164C0.712687 8.11908 1.20233 8.69211 1.80061 9.39164L2.15408 9.80467C2.53879 10.2542 2.61916 10.3643 2.65711 10.4856C2.69506 10.6099 2.69209 10.7535 2.6333 11.3526L2.58047 11.9018C2.48968 12.8365 2.41601 13.5985 2.44206 14.179C2.4681 14.7706 2.60205 15.3377 3.08945 15.7083C3.58654 16.0849 4.16473 16.0432 4.72283 15.8824C5.26382 15.7277 5.93801 15.4173 6.75656 15.04L7.24471 14.8153C7.779 14.5697 7.89285 14.5303 8.00001 14.5303C8.10716 14.5303 8.22101 14.5697 8.7553 14.8153L9.24271 15.04C10.062 15.4173 10.7362 15.7277 11.2772 15.8824C11.8353 16.0424 12.4135 16.0849 12.9098 15.7083C13.398 15.3377 13.5319 14.7706 13.558 14.1797C13.584 13.5993 13.5103 12.8365 13.4195 11.9025L13.366 11.3526C13.3079 10.7528 13.3049 10.6099 13.3436 10.4856C13.3809 10.3643 13.4612 10.2549 13.8459 9.80467L14.1994 9.39164C14.7969 8.69211 15.2866 8.11908 15.5932 7.63239C15.9094 7.1308 16.1133 6.5935 15.9317 6.00931C15.7479 5.41917 15.271 5.10289 14.7262 4.88782C14.2016 4.68094 13.4806 4.51796 12.6055 4.32001L12.5586 4.30959L12.0853 4.20243C11.5168 4.07368 11.4007 4.03498 11.3107 3.96652C11.2169 3.89582 11.1417 3.78419 10.8493 3.26028L10.5829 2.78177C10.1312 1.97061 9.76138 1.30828 9.41312 0.852839" fill="white"/>
</svg>
